<?xml version="1.0" encoding="UTF-8" standalone="no"?>
<!-- Created with Inkscape (http://www.inkscape.org/) -->

<svg
   xmlns:dc="http://purl.org/dc/elements/1.1/"
   xmlns:cc="http://creativecommons.org/ns#"
   xmlns:rdf="http://www.w3.org/1999/02/22-rdf-syntax-ns#"
   xmlns:svg="http://www.w3.org/2000/svg"
   xmlns="http://www.w3.org/2000/svg"
   xmlns:sodipodi="http://sodipodi.sourceforge.net/DTD/sodipodi-0.dtd"
   xmlns:inkscape="http://www.inkscape.org/namespaces/inkscape"
   version="1.1"
   id="svg15703"
   xml:space="preserve"
   width="800"
   height="800"
   viewBox="0 0 800 800"
   sodipodi:docname="india-national-flag-painted.svg"
   inkscape:version="0.92.4 (5da689c313, 2019-01-14)"><metadata
     id="metadata15709"><rdf:RDF><cc:Work
         rdf:about=""><dc:format>image/svg+xml</dc:format><dc:type
           rdf:resource="http://purl.org/dc/dcmitype/StillImage" /><dc:title></dc:title></cc:Work></rdf:RDF></metadata><defs
     id="defs15707"><clipPath
       clipPathUnits="userSpaceOnUse"
       id="clipPath15719"><path
         d="M 0,600 H 600 V 0 H 0 Z"
         id="path15717"
         inkscape:connector-curvature="0" /></clipPath></defs><sodipodi:namedview
     pagecolor="#ffffff"
     bordercolor="#666666"
     borderopacity="1"
     objecttolerance="10"
     gridtolerance="10"
     guidetolerance="10"
     inkscape:pageopacity="0"
     inkscape:pageshadow="2"
     inkscape:window-width="724"
     inkscape:window-height="480"
     id="namedview15705"
     showgrid="false"
     inkscape:zoom="0.295"
     inkscape:cx="400"
     inkscape:cy="400"
     inkscape:window-x="0"
     inkscape:window-y="0"
     inkscape:window-maximized="0"
     inkscape:current-layer="g15711" /><g
     id="g15711"
     inkscape:groupmode="layer"
     inkscape:label="India-flag-paint-publicdomainvectors.org"
     transform="matrix(1.3333333,0,0,-1.3333333,0,800)"><g
       id="g15713"><g
         id="g15715"
         clip-path="url(#clipPath15719)"><path
           d="m 550.436,452.903 c -4.618,-0.502 -9.185,-0.871 -12.943,0 z m 9.357,20.176 c -11.074,-0.588 -25.823,-3.631 -29.848,4.263 2.041,0.883 10.591,0.689 8.525,2.141 -6.535,1.523 -12.74,-2.86 -17.059,0 4.364,-1.29 7.788,2.254 11.732,3.199 2.221,0.525 4.038,-0.394 6.391,0 1.566,0.257 3.8,1.803 5.321,2.129 2.494,0.52 7.281,-2.048 7.476,2.135 -8.729,-2.993 -17.31,0.624 -25.592,1.063 -3.269,0.171 -7.049,-1.489 -10.655,-1.063 -2.083,0.238 -4.577,0.957 -6.398,2.135 -2.115,2.453 0.27,1.17 1.064,3.191 -4.808,-0.206 -12.803,-2.797 -17.053,0 5.529,1.741 11.031,-1.288 15.989,2.129 -3.368,2.273 -10.029,-3.58 -5.334,2.135 -3.581,0.663 -9.898,-1.37 -11.727,1.07 1.779,0.12 9.66,-0.587 6.398,1.059 -4.663,0.663 -8.524,2.133 -12.794,3.205 4.232,0.739 11.813,-1.86 12.794,2.122 -6.202,0.194 -11.78,-1.99 -17.057,0 3.229,1.409 9.139,0.112 11.731,2.14 -1.891,0.24 -5.339,-1.083 -4.262,2.124 3.56,-0.256 6.716,-2.286 8.527,1.07 -3.626,2.593 -7.514,-1.315 -10.662,2.129 3.392,1.589 9.942,0.011 12.788,2.134 -3.347,-1.22 -2.584,1.684 -4.261,2.135 -1.767,-1.867 -4.571,0.745 -7.463,1.065 -1.303,0.144 -1.503,-1.164 -3.193,-1.065 -5.297,0.313 -10.13,1.953 -12.797,2.128 0.803,2.411 5.975,0.419 8.527,1.064 1.497,-0.081 4.082,0.238 2.135,1.072 -1.77,-0.007 -3.555,0 -5.327,0 -1.077,0.838 -2.668,0.663 -4.271,3.203 4.967,1.155 8.802,-1.858 10.663,0 0.174,0.158 -8.653,2.137 -9.586,1.065 -1.369,0.057 -1.478,1.359 -3.203,1.066 -2.782,-2.612 -2.355,0.218 -3.195,1.063 -2.258,2.254 -11.03,-2.341 -10.666,2.135 6.342,0.049 13.659,-0.877 15.987,3.199 2.178,-0.971 7,-2.141 8.528,1.064 -3.518,-1.508 -2.655,2.172 -4.257,2.129 0.388,0.012 -1.377,-4.076 -4.271,-2.129 0.888,3.417 0.915,2.203 -1.064,4.264 11.282,0.245 23.829,-0.582 30.915,1.057 -8.113,3.695 -16.578,1.496 -25.58,1.07 -29.772,-1.383 -62.321,0.601 -89.547,2.135 8.533,0.702 19.883,-1.414 26.651,1.072 -1.866,0.969 -5.315,0.355 -6.393,2.12 6.691,3.619 20.002,0.608 27.71,3.199 -3.627,1.453 -7.865,0.013 -9.593,0 -2.19,-0.011 -5.622,0.74 -7.456,1.065 -17.622,3.156 -34.762,3.199 -54.37,3.199 -8.477,0 -17.766,0.846 -25.578,0 -3.08,-0.332 -6.461,-1.877 -9.605,-2.128 -7.406,-0.602 -15.087,0.809 -22.385,0 -4.464,-0.501 -8.226,-2.699 -12.779,-3.193 -9.796,-1.07 -20.163,0.225 -29.86,-1.077 -2.273,-0.294 -4.113,-1.728 -6.392,-2.129 -4.288,-0.745 -9.579,0.202 -11.732,0 -3.493,-0.312 -7.311,-1.846 -10.654,-2.128 -5.96,-0.506 -12.296,0.552 -18.118,0 -4.896,-0.47 -10.641,-2.536 -16.001,-3.205 -13.347,-1.653 -26.806,-6.109 -37.298,-5.321 -0.188,-5.917 -8.927,0.951 -8.532,-1.064 0.658,-0.063 1.27,-0.17 1.069,-1.071 -0.282,-1.502 -2.342,-1.215 -3.198,-2.128 -5.015,-0.621 -7.525,-1.146 -10.661,-2.135 -3.382,-1.063 -7.75,-3.45 -9.597,-4.264 -2.836,-1.251 -6.441,-2.028 -9.584,-3.205 -6.398,-2.385 -12.746,-5.728 -18.13,-7.461 -2.761,-0.883 -7.401,-4.515 -9.592,0 0.658,3.254 5.735,2.089 6.399,5.334 -3.231,-0.258 -7.775,-5.885 -9.603,-1.065 0.738,2.109 6.36,-0.663 5.333,3.192 -4.194,1.216 -7.405,-3.21 -8.525,1.072 0.337,2.503 3.298,2.384 4.268,4.268 -5.646,-1.264 -4.821,-2.636 -7.474,1.066 -2.643,3.693 -4.795,9.965 -8.526,7.461 2.353,-0.915 4.351,-7.662 2.141,-9.592 -2.191,4.564 -3.845,9.649 -8.527,11.721 -0.325,-2.092 1.433,-2.116 2.129,-3.193 0.864,-1.354 1.408,-3.887 2.128,-5.334 1.903,-3.813 7.637,-10.436 5.334,-13.86 -0.476,5.371 -3.506,6.817 -5.334,9.596 -2.36,3.582 -2.837,8.238 -6.391,10.662 2.722,-6.792 4.462,-10.443 7.456,-17.059 -0.182,0.413 0.663,1.24 1.064,0 0.112,-0.333 2.152,-4.094 2.141,-5.334 -0.014,-0.738 -1.247,-1.684 -1.078,-2.134 1.078,-2.756 7.125,-4.214 3.206,-7.458 -2.404,0.445 0.163,5.843 -3.206,5.334 -0.938,-3.179 3.331,-6.498 1.078,-7.467 -2.167,3.531 -2.73,8.646 -6.398,10.661 -1.465,-2.43 2.747,-4.013 0,-4.263 -2.454,4.513 -4.046,10.11 -6.392,14.925 -0.921,1.877 -1.472,4.162 -2.135,5.334 -3.494,6.109 0.927,-6.362 -1.071,-7.47 1.534,-2.354 2.599,1.34 3.206,-1.063 -0.32,-2.875 4.451,-6.093 1.064,-8.533 0.063,2.304 -1.259,8.57 -3.199,5.333 3.406,-0.802 -1.114,-7.882 1.065,-7.457 0,0.59 0.856,1.21 1.07,0 -0.182,-3.173 2.467,-7.142 1.064,-11.731 -1.34,4.515 -3.224,11.175 -6.398,10.662 -0.726,2.83 -1.684,5.434 -3.199,7.462 -3.669,-3.074 3.417,-8.026 0,-10.655 0.615,3.674 -3.518,6.36 -5.328,9.585 -1.089,1.96 -1.232,4.795 -2.134,6.397 -0.676,1.215 -2.63,2.223 -3.199,3.206 0.507,-0.884 1.183,3.912 -1.064,1.063 3.048,-1.238 -1.722,-1.238 -2.13,0 -0.957,-3.537 5.916,-4.626 3.194,-6.397 0.075,2.623 -2.486,1.634 -4.263,3.192 -3.043,2.686 -5.434,8.727 -8.527,7.469 3.619,-4.194 8.263,-7.369 9.596,-13.86 -2.234,0.3 -2.421,3.411 -3.205,4.264 -1.959,2.164 -1.771,1.251 -4.262,2.127 -0.101,-4.714 5.822,-3.411 5.334,-8.526 0.318,-2.454 -3.08,-1.177 -3.2,-3.192 1.359,-1.559 4.808,-6.462 3.2,-7.463 -2.937,2.036 -6.361,3.599 -7.463,7.463 -5.985,0.187 3.707,-3.594 0,-4.271 -0.012,1.078 -1.872,1.347 -2.134,0 3.211,-3.198 9.684,-8.763 7.468,-13.846 -0.702,3.567 -4.082,4.445 -5.334,7.455 0.7,-7.13 6.191,-15.099 4.263,-21.323 -1.402,4.183 -2.122,11.433 -5.333,10.668 0.294,1.359 1.07,1.472 1.07,3.2 0,6.096 -1.452,-2.448 -1.07,-2.135 -0.802,-0.671 -5.165,4.293 -5.328,3.192 0.138,-3.813 5.972,-7.469 2.128,-11.725 0.213,3.055 0.138,5.809 -3.192,5.334 -1.308,-2.579 2.529,-2.229 2.129,-4.264 -0.07,-0.369 -2.58,-1.108 -2.129,-2.141 0.282,-0.626 3.907,-0.3 3.192,-2.129 -2.209,-0.594 -2.254,-1.665 -1.063,-3.197 -1.296,0.337 -3.67,-3.081 -1.065,-3.2 0.239,0.831 0.026,2.11 1.065,2.134 0.613,-3.449 -0.321,-5.364 -2.129,-6.397 1.299,-3.27 2.269,-7.585 2.986,-11.65 h 1.269 c -0.022,-1.903 -1.283,-5.361 -1.063,-7.176 0.377,-2.942 2.292,-5.648 2.136,-8.521 -0.063,-1.289 -2.236,-1.107 -2.136,-2.141 0.014,-0.081 1.967,0.087 2.136,0 0.562,-0.251 0.789,-0.526 0.812,-0.792 h 515.902 c -0.495,0.176 -0.796,0.43 -0.777,0.792 3.454,-0.607 4.964,0.734 7.463,1.071 7.185,-0.35 2.377,1.895 -2.13,1.07 -4.807,-1.621 -16.564,-1.892 -21.316,0 6.505,1.991 16.897,0.932 21.316,2.122 -8.971,1.766 5.046,0.865 4.258,4.269 -2.548,3.299 -5.648,-1.07 -8.527,-1.064 -3.65,0.007 -6.899,2.486 -10.656,3.194 5.86,0.187 12.41,-0.327 14.925,3.204 -0.213,3.338 -6.221,0.89 -7.462,3.194 6.06,0.694 14.9,-1.403 19.181,1.077 -2.271,0.588 -4.937,0.639 -7.772,0.472 0.102,0.076 0.215,0.141 0.311,0.224 h -3.193 c 2.841,2.748 -2.455,1.12 -1.065,5.327 2.116,-0.012 1.354,-2.905 4.258,-2.128 0.473,4.025 -5.561,1.533 -6.386,4.262 4.195,-0.293 7.398,0.408 8.524,3.194 -3.691,0.576 -10.115,-1.584 -10.665,2.135 8.063,0.469 13.979,3.079 19.193,6.391 -2.829,-1.266 -5.922,0.202 -9.59,0"
           style="fill:#f19b3f;fill-opacity:1;fill-rule:nonzero;stroke:none"
           id="path15721"
           inkscape:connector-curvature="0" /><path
           d="m 32.125,432.937 c 0.131,-2.148 1.896,-4.533 2.128,-7.456 0.119,-1.452 -1.271,-3.656 -1.064,-5.328 0.037,-0.288 1.959,-1.271 2.134,-2.141 -0.012,0.057 -1.396,-1.703 -1.07,-3.192 1.697,-7.619 2.773,-17.948 2.135,-27.721 -2.016,0.124 -0.746,3.525 -3.199,3.199 -0.019,-4.788 3.95,-7.73 0,-10.662 3.549,0.74 1.708,-2.197 1.064,-3.192 6.404,-0.486 2.434,-2.617 2.135,-6.398 4.069,-2.316 3.342,0.983 5.326,3.206 0.734,-6.881 -0.694,-12.32 3.205,-12.804 -4.375,-3.059 -0.394,-10.472 0,-15.974 0.058,-0.991 -1.064,-1.978 -1.069,-2.142 -0.063,-2.561 3.092,-6.454 0,-7.461 -1.083,4.368 -1.872,9.221 -2.136,11.725 -0.538,5.17 0.909,13.052 -4.262,13.852 0.714,-12.431 3.054,-28.915 2.134,-39.439 0.058,1.998 -0.82,2.26 -2.134,1.072 0.062,1.365 1.365,1.471 1.07,3.199 -2.911,0.094 -2.153,-1.784 -4.269,0 2.034,-4.997 0.507,-9.723 1.07,-14.931 0.4,-3.762 2.779,-8.67 2.129,-11.718 -0.226,-1.064 -0.561,-1.985 -0.976,-2.806 h 501.493 c -2.786,2.245 -5.521,4.539 -8.024,7.062 5.846,1.584 4.668,-3.851 8.525,-4.256 2.842,-0.127 -2.944,4.175 -1.064,4.256 1.353,0.063 3.657,-7.557 7.449,-4.256 -5.144,3.01 -7.412,8.92 -11.712,12.782 1.246,1.227 3.768,1.215 6.391,1.07 -0.956,-3.211 2.511,-1.784 4.258,-3.205 2.772,-2.222 4.907,-7.781 7.475,-6.391 -4.358,3.886 -9.222,9.633 -13.861,11.718 -1.058,0.49 -3.67,3.645 -4.263,4.277 -1.24,1.296 -1.458,3.486 -3.198,4.262 3.8,0.546 6.484,-5.515 8.525,-3.198 -0.913,1.314 -6.868,2.948 -4.264,4.264 2.322,-1.278 6.199,-6.531 8.522,-4.264 -2.067,-0.125 -3.163,2.279 -4.258,3.198 -1.365,1.134 -4.463,1.766 -4.264,4.264 3.601,1.703 4.546,-4.526 6.393,-1.071 -3.792,1.547 -6.341,4.32 -8.525,7.468 2.478,0.351 4.593,1.09 5.332,3.195 -4.432,0.193 -5.864,-1.848 -8.532,1.068 -0.776,2.136 2.048,2.067 2.135,3.201 -0.025,-0.282 -2.035,0.587 -2.135,1.063 -0.407,1.96 1.703,4.858 2.135,7.456 -4.22,-1.402 -1.615,11.087 -1.064,11.739 0.6,0.7 3.511,-0.615 3.198,1.057 -1.834,-0.062 -2.735,0.826 -3.198,2.128 4.047,4.47 -0.239,17.298 7.461,18.131 -1.177,5.796 2.248,6.98 4.257,9.583 -1.833,0.427 -2.729,-1.577 -3.193,0 6.429,2.906 14.175,-1.59 19.182,3.2 -6.974,0.576 -12.133,-0.651 -18.118,-1.065 -1.821,2.136 -1.551,8.645 1.065,9.603 8.946,-0.188 14.43,2.654 21.323,3.193 6.228,0.481 11.793,-0.919 13.859,2.135 -7.849,0.827 -10.466,-2.623 -15.988,0 2.002,0.558 8.671,1.866 6.385,3.192 -1.252,-0.155 -2.415,-1.89 -3.194,0 -0.236,3.844 10.319,2.411 7.463,5.328 -4.532,-0.237 -14.603,-2.173 -22.385,0 4.218,0.026 4.676,3.036 3.205,4.27 0.449,-1.766 -3.982,0.093 -4.27,1.064 1.591,0.194 3.931,-0.381 4.27,1.065 -3.356,-0.507 -4.358,1.326 -5.334,3.199 1.742,-0.777 4.63,2.115 2.129,2.12 0.463,-1.757 -3.976,0.102 -4.27,1.079 2.779,0.457 8.2,-0.145 11.732,2.128 5.502,1.653 -2.931,0.373 -5.621,1.336 H 34.001 c 0.073,-0.835 -1.863,-1.592 -1.876,-1.336"
           style="fill:#ffffff;fill-opacity:1;fill-rule:nonzero;stroke:none"
           id="path15723"
           inkscape:connector-curvature="0" /><path
           d="m 549.126,265.575 c 0.006,0.752 -0.124,1.343 -0.33,1.821 h -3.082 c 1.047,-0.696 2.157,-1.331 3.412,-1.821"
           style="fill:#10a54a;fill-opacity:1;fill-rule:nonzero;stroke:none"
           id="path15725"
           inkscape:connector-curvature="0" /><path
           d="M 17.238,267.396 H 9.963 c -0.444,-0.293 -0.874,-0.558 -1.283,-0.75 2.536,-0.478 5.059,-0.274 8.558,0.75"
           style="fill:#10a54a;fill-opacity:1;fill-rule:nonzero;stroke:none"
           id="path15727"
           inkscape:connector-curvature="0" /><path
           d="m 10.896,274.08 c -0.031,0.009 -0.063,0.015 -0.094,0.022 -1.275,-0.697 -0.764,-0.458 0.094,-0.022"
           style="fill:#10a54a;fill-opacity:1;fill-rule:nonzero;stroke:none"
           id="path15729"
           inkscape:connector-curvature="0" /><path
           d="m 18.27,284.77 c -0.801,-3.287 2.924,-2.048 2.128,-5.333 -1.741,-0.25 -4.612,-2.425 -6.804,-3.853 -0.226,-0.147 -0.448,-0.288 -0.658,-0.418 -0.37,-0.219 -1.325,-0.722 -2.04,-1.086 3.487,-0.843 6.545,2.73 4.169,-1.042 1.832,1.015 3.705,1.798 5.191,2.546 0.439,0.221 0.848,0.44 1.207,0.659 -0.564,-0.349 -0.764,0.501 0,1.07 1.602,1.183 4.633,2.399 5.334,1.058 -0.056,0.107 -3.331,-1.621 -3.199,-2.128 1.869,-0.962 3.376,2.708 4.131,0.479 -3.496,-0.388 -4.603,-3.161 -7.331,-4.326 4.371,-1.108 8.721,3.288 11.727,0 -2.172,0.916 -6.618,-0.92 -3.2,-2.122 0.012,1.391 2.954,1.353 3.2,0 -2.911,0.771 -2.147,-2.121 -4.264,-2.139 -2.083,2.596 -10.342,1.05 -10.486,-1.589 -0.943,-0.511 -1.746,-1.151 -2.31,-2.027 2.006,-0.716 2.827,-0.787 3.219,-0.607 -0.004,-0.013 -0.01,-0.023 -0.014,-0.036 1.945,0.086 3.043,0.401 3.693,0.803 0.18,-0.048 0.37,-0.101 0.571,-0.16 0.411,1.484 0.843,2.074 1.314,2.362 0.757,-0.154 2.7,-0.223 4.013,0.187 -4.382,-4.506 4.257,-1.996 5.328,-4.261 -1.546,-0.576 -5.503,1.252 -5.328,-1.071 4.069,-1.841 7.011,1.822 7.462,-3.193 -3.468,-0.087 -6.562,-0.544 -8.526,-2.128 3.968,-1.792 6.699,1.652 10.655,2.128 -0.088,-0.006 2.711,-1.184 4.262,-1.064 6.73,0.495 11.151,1.177 17.06,-2.128 -4.788,-2.393 -9.453,3.968 -11.725,-2.135 4.269,1.39 7.012,-1.842 9.596,-2.135 2.204,-0.239 4.708,2.11 6.399,0 -8.69,-3.95 -12.884,3.875 -22.387,0 -2.962,1.597 1.846,4.357 -1.071,5.334 -1.64,-2.236 -6.328,-0.389 -2.134,-3.199 -3.306,-0.12 -3.043,3.348 -7.462,2.135 -1.265,-4.469 4.494,-1.911 5.333,-4.27 -4.3,1.12 -1.334,-2.322 -3.198,-3.193 -3.019,-1.426 -6.674,1.697 -11.727,-1.071 6.092,-0.501 6.236,-0.337 10.655,-2.128 -0.518,3.511 6.154,4.463 6.399,1.064 -1.253,-0.162 -3.018,0.182 -3.199,-1.064 2.022,-2.016 6.217,3.75 8.533,-1.064 -2.017,-0.237 -2.355,1.195 -4.264,1.064 -0.882,-3.888 4.339,-2.265 5.328,-3.206 0.663,-0.613 -1.967,-2.088 0,-2.128 5.077,4.941 6.441,-2.942 11.725,0 -0.501,-4.414 4.989,-2.83 7.469,-4.268 0.112,1.301 0.307,2.527 2.128,2.133 2.329,-0.238 5.735,-4.813 7.462,-2.133 -1.835,-0.052 -2.742,0.825 -3.198,2.133 7.236,1.484 11.486,0.307 15.994,-3.185 -3.593,-0.683 -9.904,1.358 -11.731,-1.066 7.424,-2.12 14.123,2.042 19.181,-3.203 -1.891,-0.245 -5.335,1.07 -4.257,-2.137 20.846,-4.019 39.884,-9.864 62.89,-11.725 0.15,-1.415 -4.332,-3.211 -1.064,-4.257 0.625,5.592 20.565,2.913 21.322,2.123 0.651,-0.675 -1.966,-2.06 0,-2.123 0.514,1.258 1.127,2.41 2.134,3.187 4.477,-1.032 10.512,0 13.855,0 1.126,0 2.786,-1.171 3.193,-1.064 0.338,0.095 0.702,3.875 3.204,2.134 -0.399,-3.461 -3.743,-2.165 -5.332,-3.192 -0.878,-0.57 0.337,-1.772 -1.065,-2.135 0.4,0.102 -0.551,2.373 -2.13,2.135 -1.389,-0.221 -1,-1.729 -2.133,-2.135 -0.307,2.193 -2.85,2.122 -4.264,3.193 -0.425,-1.833 1.577,-2.736 0,-3.193 -7.161,0.332 -11.4,1.021 -18.123,1.07 -1.859,0.006 -3.444,-1.295 -5.333,-1.07 -1.398,0.162 -1.447,1.127 -3.194,1.07 -1.927,-0.075 -2.453,-1.276 -4.268,-1.07 -0.239,0.027 -2.755,2.022 -3.194,2.135 -5.778,1.396 -11.537,0.149 -17.058,1.058 -1.654,0.276 -2.781,1.746 -4.257,2.134 -1.671,0.439 -3.657,-0.344 -5.335,0 -1.852,0.376 -3.418,2.63 -5.333,3.2 -1.302,0.388 -2.93,-0.295 -4.257,0 -0.407,0.093 -2.642,1.959 -3.205,2.128 -3.887,1.133 -6.086,0.288 -9.592,1.071 -1.207,0.262 -2.378,2.027 -3.204,2.127 -1.941,0.258 -2.405,-1 -4.257,-1.063 -1.196,-0.044 -1.653,1.503 -2.141,0 5.02,-1.258 2.016,-3.094 0,-5.328 7.399,0.934 9.115,-4.351 14.925,-2.135 -2.068,-3.562 0.388,-0.576 3.203,-1.07 1.404,-0.237 2.167,-1.834 3.207,-2.122 1.602,-0.457 3.755,0.563 5.321,0 0.287,-0.113 0.714,-1.915 1.064,-2.135 3.518,-2.136 7.902,0.087 10.668,0 2.071,-0.081 5.621,-1.652 8.52,-2.136 8.188,-1.32 14.655,-1.632 21.317,-3.192 -5.96,0.945 -3.97,-1.081 -5.328,-3.199 -4.126,1.591 -15.107,1.904 -19.176,0 10.086,-0.987 27.858,-1.225 39.44,-6.403 -4.464,-0.213 -16.102,0.946 -8.533,-2.135 -3.456,-0.6 -5.364,0.325 -6.403,2.135 0.099,-0.338 -2.386,-3.318 -4.258,-2.135 -0.677,0.437 1.991,2.185 0,2.135 -0.557,-0.012 -1.252,-2.185 -3.199,-2.135 -3.818,0.119 -7.394,4.263 -11.726,2.135 1.259,-0.158 3.03,0.188 3.199,-1.058 -16.076,1.195 -33.273,5.008 -46.907,5.326 1.589,0.176 3.943,-0.38 4.268,1.072 -9.126,-0.594 -16.012,6.71 -23.45,4.262 5.891,-1.928 12.47,-3.166 18.116,-5.334 -1.89,-0.243 -5.333,1.077 -4.268,-2.14 2.817,-1.654 17.422,-4.201 17.065,-1.057 -2.178,-0.915 -5.885,1.677 -3.205,2.127 4.119,-2.936 9.028,-2.089 13.86,-3.198 0.313,-0.068 1.628,-2.029 2.141,-2.135 1.878,-0.369 4.308,0.594 6.386,0 1.452,-0.401 3.079,-2.717 4.269,-3.187 3.506,-1.415 6.272,-0.42 9.591,-1.063 2.592,1.433 0.663,2.122 2.134,3.186 2.686,0.4 4.72,-1.716 7.462,-2.123 3.939,-0.6 9.116,1.097 14.925,1.059 7.306,-0.038 16.459,-1.516 23.444,0 0.583,0.131 -0.181,2.028 1.076,2.128 5.473,0.482 14.663,-1.533 22.376,-1.064 8.176,0.52 12.189,1.389 15.988,-3.186 -16.002,-3.287 -35.076,-3.225 -52.223,-4.265 -5.146,-0.317 -9.678,-2.384 -13.859,-1.069 0.819,0.236 2.102,0.024 2.128,1.069 -4.576,-2.754 -8.702,0.125 -11.725,-3.21 17.997,-0.489 38.505,1.646 59.691,3.21 4.069,0.294 10.861,0.635 15.988,1.059 11.662,0.976 28.491,6.124 38.381,3.206 -0.818,0.236 -2.228,-1.052 -2.128,-1.077 2.209,-0.432 3.788,1.978 5.326,0 -2.721,-0.477 -4.906,-1.497 -6.397,-3.188 3.794,-0.907 6.387,3.088 7.463,-1.069 -5.145,-0.19 -7.275,-3.387 -10.662,-5.326 5.052,0.543 4.258,1.336 2.135,-2.143 3.031,0.188 4.444,1.953 7.461,2.143 0.007,-1.073 -0.862,-1.279 -1.069,-2.143 3.587,-0.113 6.579,3.099 8.526,2.143 0.326,-0.165 -1.113,-2.143 -1.058,-2.143 2.93,-0.145 3.619,0.727 7.463,1.07 -0.063,-1.366 -1.365,-1.476 -1.071,-3.193 3.794,-1.658 0.657,3.619 3.199,3.193 2.21,-0.638 7.004,1.316 7.469,-1.07 -3.024,0.889 -2.774,-1.502 -5.335,-1.064 -1.32,-3.443 3.449,-0.814 2.135,-4.264 -1.74,0.783 -4.644,-2.116 -2.135,-2.129 0.144,1.755 7.319,1.755 7.456,0 -2.942,1.403 -3.649,-4.22 -2.121,-1.064 3.111,-0.288 3.267,2.411 6.392,2.128 -0.325,-1.289 3.08,-3.672 3.199,-1.064 -5.666,1.779 6.303,2.124 9.584,2.129 -1.797,-3.713 -0.389,-3.724 2.142,-5.334 -1.791,-1.47 -7.076,-4.921 -5.334,-6.391 3.242,4.401 13.64,5.502 13.859,9.596 5.672,0.727 7.55,5.247 14.924,4.266 -0.156,-1.266 -1.902,-2.417 0,-3.202 3.012,3.806 8.182,5.434 10.654,7.463 2.994,2.442 5.718,4.652 8.527,6.399 2.629,1.62 3.651,2.822 5.335,4.257 1.176,1.02 3.111,1.101 4.263,2.14 2.723,2.418 5.791,6.774 7.469,8.52 1.477,1.548 3.255,2.08 4.256,3.205 1.264,1.403 1.89,3.713 3.199,5.328 1.353,1.66 3.011,2.623 4.264,4.269 3.605,4.709 7.072,9.655 9.596,13.855 2.379,3.95 4.602,7.124 5.334,11.718 6.454,2.429 11.469,6.299 19.188,7.469 2.666,-10.166 -1.441,-20.502 -2.135,-30.919 -0.095,-1.345 1.171,-1.466 1.065,-3.193 -0.382,-6.322 -2.35,-14.298 -1.065,-20.252 0.338,-1.584 1.902,-2.485 2.135,-4.269 0.413,-3.224 -1.201,-7.58 1.064,-10.661 -0.188,2.949 1.641,3.668 3.192,2.134 -0.888,-1.239 -1.401,-2.86 -1.058,-5.326 5.79,1.632 2.048,-4.877 2.129,-5.328 -0.02,0.05 1.929,-1.791 2.135,-2.135 3.392,-5.86 -1.979,-12.915 -1.076,-20.259 6.516,-0.826 3.83,7.55 5.333,11.726 1.077,1.171 4.583,5.234 2.128,6.404 0.333,-1.296 -3.074,-3.681 -3.193,-1.069 0.515,4.449 3.493,6.458 6.398,8.524 -2.153,0.872 0.67,5.623 1.065,7.463 -4.007,0.815 -0.732,-5.659 -5.334,-4.261 0.138,1.77 -3.45,6.778 1.064,6.396 -0.144,-1.265 -1.891,-2.418 0,-3.205 4.557,2.812 5.033,7.18 5.334,9.597 3.299,-2.942 4.106,-9.046 3.192,-11.72 -0.037,-0.131 -2.114,0.102 -2.126,0 -0.151,-2.555 1.301,-5.038 1.061,-7.461 -0.142,-1.516 -1.775,-2.242 -2.127,-4.264 -0.288,-1.735 0.225,-3.599 0,-5.333 4.181,1.463 3.141,6.666 5.332,9.597 0.678,0.895 2.216,0.95 2.998,1.859 -0.801,-0.792 -0.234,4.331 1.272,3.469 0.666,-1.823 3.219,-1.766 4.258,-3.201 -0.638,-1.595 -5.36,-4.45 -3.194,-5.326 1.591,1.252 3.006,2.674 4.258,4.262 1.221,-3.349 -1.671,-2.597 -2.129,-4.262 3.244,-3.343 4.603,6.147 8.528,2.121 0.313,6.799 3.392,10.83 9.603,11.732 1.164,3.093 1.314,7.206 5.322,7.468 -0.176,-2.747 -4.522,-6.755 -2.13,-8.538 1.792,3.781 3.818,7.443 5.333,10.655 0.551,1.196 1.904,1.991 2.13,3.211 0.037,0.219 -1.709,0.782 -1.066,2.123 0.221,0.47 1.692,1.457 2.13,2.141 2.143,3.305 3.093,6.923 6.392,8.525 1.433,-7.856 -3.576,-14.873 -2.135,-19.186 3.155,3.236 2.065,10.735 5.334,13.847 3.199,-8.622 -3.393,-18.273 -2.129,-24.507 2.431,4.317 1.665,9.001 3.193,13.846 0.776,2.459 3.293,4.87 4.261,7.475 1.185,3.155 0.202,4.501 1.072,6.398 1.265,2.728 3.744,6.366 4.265,8.52 0.392,1.677 -0.421,3.668 0,5.327 0.105,0.426 1.995,2.61 2.126,3.205 0.696,3.056 0.108,6.524 1.07,9.59 0.103,0.301 2.005,0.634 2.131,1.064 1.188,4.37 0.337,6.292 1.063,9.598 1.69,7.558 5.628,14.042 6.398,21.323 3.031,0.895 6.467,2.015 7.46,1.065 0.878,-0.834 0.979,-0.321 2.138,-1.065 0.945,-0.607 2.667,-2.899 3.198,-3.199 1.828,-1.052 4.433,-0.951 6.399,-2.137 1.682,-1.012 2.997,-3.679 4.261,-4.261 2.838,-1.297 6.713,-1.034 9.586,-2.129 5.171,-1.966 8.252,-5.671 12.797,-4.263 -3.019,1.597 -4.927,4.307 -9.592,4.263 -3.706,3.921 -7.249,8.089 -11.725,11.726 -0.972,0.776 -3.913,1.008 -5.327,2.122 -1.565,1.24 -3.031,3.304 -3.206,5.332 3.981,-0.681 5.233,-4.706 9.598,-2.128 1.256,-2.008 5.527,-6.473 7.455,-4.261 -1.778,1.727 -4.906,3.217 -7.455,5.327 -2.424,2.003 -6.142,4.206 -5.328,6.39 3.456,-2.959 9.089,-9.346 12.783,-8.52 -3.842,1.164 -1.891,3.212 -3.193,4.259 0.646,-0.514 -2.441,-1.002 -2.129,1.069 5.985,-0.182 -3.706,3.607 0,4.264 1.253,-0.156 2.417,-1.897 3.193,0 -1.121,0.848 -2.945,1.002 -3.8,2.116 h 2.176 c 0.357,-0.535 0.739,-1.043 1.624,-1.046 0.111,0.375 0.158,0.718 0.177,1.046 h 1.829 c -0.647,0.622 -1.319,1.022 -1.988,1.337 -0.058,0.169 -0.118,0.339 -0.199,0.495 h -0.986 c -1.17,0.455 -2.264,0.878 -3.09,2.021 0.363,2.072 -0.175,9.985 -4.263,7.461 1.747,0.776 4.632,-2.116 2.129,-2.128 -3.207,1.351 -3.67,4.274 -2.129,6.398 1.589,-2.317 5.333,-2.485 5.327,-6.398 5.915,1.289 6.472,-2.767 9.592,-4.264 -0.951,5.085 -6.137,5.941 -8.528,9.59 1.415,2.611 3.968,-1.17 4.258,1.072 -1.928,1.565 -3.888,3.1 -5.823,4.657 H 36.476 C 33.197,289.36 24.538,289.676 18.27,284.77"
           style="fill:#10a54a;fill-opacity:1;fill-rule:nonzero;stroke:none"
           id="path15731"
           inkscape:connector-curvature="0" /><path
           d="m 285.72,420.427 c 30.586,0 55.38,-24.793 55.38,-55.378 0,-30.584 -24.794,-55.378 -55.38,-55.378 -30.584,0 -55.378,24.794 -55.378,55.378 0,30.585 24.794,55.378 55.378,55.378"
           style="fill:#313394;fill-opacity:1;fill-rule:nonzero;stroke:none"
           id="path15733"
           inkscape:connector-curvature="0" /><path
           d="m 285.72,413.505 c 26.762,0 48.457,-21.694 48.457,-48.456 0,-26.761 -21.695,-48.456 -48.457,-48.456 -26.761,0 -48.456,21.695 -48.456,48.456 0,26.762 21.695,48.456 48.456,48.456"
           style="fill:#ffffff;fill-opacity:1;fill-rule:nonzero;stroke:none"
           id="path15735"
           inkscape:connector-curvature="0" /><path
           d="m 285.72,374.741 c 5.353,0 9.692,-4.339 9.692,-9.692 0,-5.352 -4.339,-9.691 -9.692,-9.691 -5.351,0 -9.69,4.339 -9.69,9.691 0,5.353 4.339,9.692 9.69,9.692"
           style="fill:#313394;fill-opacity:1;fill-rule:nonzero;stroke:none"
           id="path15737"
           inkscape:connector-curvature="0" /><path
           d="m 334.079,361.127 c 1.326,-0.175 2.26,-1.392 2.085,-2.719 -0.174,-1.327 -1.392,-2.261 -2.719,-2.085 -1.326,0.173 -2.259,1.391 -2.085,2.718 0.175,1.326 1.392,2.26 2.719,2.086"
           style="fill:#313394;fill-opacity:1;fill-rule:nonzero;stroke:none"
           id="path15739"
           inkscape:connector-curvature="0" /><path
           d="m 285.72,316.593 1.662,29.074 -1.662,13.845 -1.66,-13.845 z"
           style="fill:#313394;fill-opacity:1;fill-rule:nonzero;stroke:none"
           id="path15741"
           inkscape:connector-curvature="0" /><path
           d="m 331.416,348.745 c 1.235,-0.513 1.822,-1.93 1.311,-3.165 -0.512,-1.237 -1.93,-1.825 -3.165,-1.312 -1.237,0.512 -1.825,1.929 -1.312,3.165 0.512,1.236 1.93,1.824 3.166,1.312"
           style="fill:#313394;fill-opacity:1;fill-rule:nonzero;stroke:none"
           id="path15743"
           inkscape:connector-curvature="0" /><path
           d="m 273.179,318.244 9.13,27.653 1.978,13.803 -5.188,-12.942 z"
           style="fill:#313394;fill-opacity:1;fill-rule:nonzero;stroke:none"
           id="path15745"
           inkscape:connector-curvature="0" /><path
           d="m 325.639,337.473 c 1.061,-0.814 1.261,-2.335 0.446,-3.397 -0.814,-1.061 -2.335,-1.262 -3.396,-0.447 -1.062,0.814 -1.262,2.336 -0.448,3.397 0.816,1.062 2.336,1.262 3.398,0.447"
           style="fill:#313394;fill-opacity:1;fill-rule:nonzero;stroke:none"
           id="path15747"
           inkscape:connector-curvature="0" /><path
           d="m 261.492,323.085 15.976,24.348 5.484,12.82 -8.361,-11.158 z"
           style="fill:#313394;fill-opacity:1;fill-rule:nonzero;stroke:none"
           id="path15749"
           inkscape:connector-curvature="0" /><path
           d="m 317.141,328.081 c 0.815,-1.06 0.615,-2.582 -0.447,-3.396 -1.061,-0.815 -2.583,-0.615 -3.397,0.447 -0.815,1.062 -0.614,2.581 0.447,3.397 1.062,0.814 2.583,0.614 3.397,-0.448"
           style="fill:#313394;fill-opacity:1;fill-rule:nonzero;stroke:none"
           id="path15751"
           inkscape:connector-curvature="0" /><path
           d="m 251.457,330.786 21.733,19.383 8.615,10.964 -10.965,-8.614 z"
           style="fill:#313394;fill-opacity:1;fill-rule:nonzero;stroke:none"
           id="path15753"
           inkscape:connector-curvature="0" /><path
           d="m 306.502,321.208 c 0.513,-1.235 -0.074,-2.652 -1.311,-3.165 -1.236,-0.512 -2.653,0.076 -3.166,1.311 -0.511,1.237 0.076,2.654 1.312,3.167 1.236,0.51 2.653,-0.076 3.165,-1.313"
           style="fill:#313394;fill-opacity:1;fill-rule:nonzero;stroke:none"
           id="path15755"
           inkscape:connector-curvature="0" /><path
           d="m 243.757,340.82 26.009,13.099 11.158,8.361 -12.82,-5.484 z"
           style="fill:#313394;fill-opacity:1;fill-rule:nonzero;stroke:none"
           id="path15757"
           inkscape:connector-curvature="0" /><path
           d="m 294.448,317.325 c 0.174,-1.328 -0.76,-2.545 -2.086,-2.72 -1.327,-0.173 -2.544,0.76 -2.719,2.086 -0.174,1.327 0.759,2.543 2.086,2.719 1.327,0.174 2.544,-0.759 2.719,-2.085"
           style="fill:#313394;fill-opacity:1;fill-rule:nonzero;stroke:none"
           id="path15759"
           inkscape:connector-curvature="0" /><path
           d="m 238.916,352.509 28.513,5.918 12.943,5.189 -13.803,-1.978 z"
           style="fill:#313394;fill-opacity:1;fill-rule:nonzero;stroke:none"
           id="path15761"
           inkscape:connector-curvature="0" /><path
           d="m 281.798,316.691 c -0.175,-1.326 -1.392,-2.259 -2.718,-2.086 -1.327,0.175 -2.261,1.392 -2.086,2.72 0.174,1.326 1.392,2.259 2.719,2.085 1.326,-0.176 2.26,-1.392 2.085,-2.719"
           style="fill:#313394;fill-opacity:1;fill-rule:nonzero;stroke:none"
           id="path15763"
           inkscape:connector-curvature="0" /><path
           d="m 237.264,365.049 29.074,-1.66 13.845,1.66 -13.845,1.661 z"
           style="fill:#313394;fill-opacity:1;fill-rule:nonzero;stroke:none"
           id="path15765"
           inkscape:connector-curvature="0" /><path
           d="m 269.416,319.354 c -0.513,-1.235 -1.929,-1.823 -3.166,-1.311 -1.236,0.513 -1.823,1.93 -1.311,3.165 0.512,1.237 1.929,1.823 3.165,1.313 1.237,-0.513 1.824,-1.93 1.312,-3.167"
           style="fill:#313394;fill-opacity:1;fill-rule:nonzero;stroke:none"
           id="path15767"
           inkscape:connector-curvature="0" /><path
           d="m 238.916,377.59 27.653,-9.13 13.803,-1.978 -12.943,5.189 z"
           style="fill:#313394;fill-opacity:1;fill-rule:nonzero;stroke:none"
           id="path15769"
           inkscape:connector-curvature="0" /><path
           d="m 258.145,325.132 c -0.814,-1.062 -2.336,-1.262 -3.397,-0.447 -1.062,0.814 -1.262,2.336 -0.447,3.396 0.814,1.062 2.335,1.262 3.397,0.448 1.061,-0.816 1.261,-2.335 0.447,-3.397"
           style="fill:#313394;fill-opacity:1;fill-rule:nonzero;stroke:none"
           id="path15771"
           inkscape:connector-curvature="0" /><path
           d="m 243.757,389.278 24.347,-15.976 12.82,-5.483 -11.158,8.361 z"
           style="fill:#313394;fill-opacity:1;fill-rule:nonzero;stroke:none"
           id="path15773"
           inkscape:connector-curvature="0" /><path
           d="m 248.752,333.629 c -1.061,-0.815 -2.582,-0.614 -3.397,0.447 -0.814,1.062 -0.613,2.583 0.448,3.397 1.061,0.815 2.582,0.615 3.397,-0.447 0.814,-1.061 0.614,-2.583 -0.448,-3.397"
           style="fill:#313394;fill-opacity:1;fill-rule:nonzero;stroke:none"
           id="path15775"
           inkscape:connector-curvature="0" /><path
           d="m 251.457,399.313 19.383,-21.733 10.965,-8.614 -8.615,10.964 z"
           style="fill:#313394;fill-opacity:1;fill-rule:nonzero;stroke:none"
           id="path15777"
           inkscape:connector-curvature="0" /><path
           d="m 241.88,344.268 c -1.235,-0.513 -2.653,0.075 -3.166,1.312 -0.511,1.235 0.076,2.652 1.312,3.165 1.236,0.512 2.653,-0.076 3.165,-1.312 0.513,-1.236 -0.075,-2.653 -1.311,-3.165"
           style="fill:#313394;fill-opacity:1;fill-rule:nonzero;stroke:none"
           id="path15779"
           inkscape:connector-curvature="0" /><path
           d="m 261.492,407.013 13.099,-26.009 8.361,-11.159 -5.484,12.821 z"
           style="fill:#313394;fill-opacity:1;fill-rule:nonzero;stroke:none"
           id="path15781"
           inkscape:connector-curvature="0" /><path
           d="m 237.996,356.323 c -1.327,-0.176 -2.545,0.758 -2.719,2.085 -0.175,1.327 0.759,2.544 2.086,2.719 1.326,0.174 2.543,-0.76 2.719,-2.086 0.174,-1.327 -0.76,-2.545 -2.086,-2.718"
           style="fill:#313394;fill-opacity:1;fill-rule:nonzero;stroke:none"
           id="path15783"
           inkscape:connector-curvature="0" /><path
           d="m 273.179,411.854 5.92,-28.513 5.188,-12.942 -1.978,13.803 z"
           style="fill:#313394;fill-opacity:1;fill-rule:nonzero;stroke:none"
           id="path15785"
           inkscape:connector-curvature="0" /><path
           d="m 237.363,368.971 c -1.327,0.175 -2.261,1.392 -2.086,2.72 0.174,1.327 1.392,2.26 2.719,2.085 1.326,-0.174 2.26,-1.392 2.086,-2.718 -0.176,-1.327 -1.393,-2.26 -2.719,-2.087"
           style="fill:#313394;fill-opacity:1;fill-rule:nonzero;stroke:none"
           id="path15787"
           inkscape:connector-curvature="0" /><path
           d="m 285.72,413.505 -1.66,-29.073 1.66,-13.846 1.662,13.846 z"
           style="fill:#313394;fill-opacity:1;fill-rule:nonzero;stroke:none"
           id="path15789"
           inkscape:connector-curvature="0" /><path
           d="m 240.026,381.354 c -1.236,0.512 -1.823,1.93 -1.312,3.165 0.513,1.237 1.931,1.825 3.166,1.312 1.236,-0.512 1.824,-1.93 1.311,-3.165 -0.512,-1.236 -1.929,-1.824 -3.165,-1.312"
           style="fill:#313394;fill-opacity:1;fill-rule:nonzero;stroke:none"
           id="path15791"
           inkscape:connector-curvature="0" /><path
           d="m 298.262,411.854 -9.13,-27.652 -1.978,-13.803 5.188,12.942 z"
           style="fill:#313394;fill-opacity:1;fill-rule:nonzero;stroke:none"
           id="path15793"
           inkscape:connector-curvature="0" /><path
           d="m 245.803,392.625 c -1.061,0.814 -1.262,2.335 -0.448,3.397 0.815,1.062 2.336,1.263 3.397,0.447 1.062,-0.814 1.262,-2.335 0.448,-3.396 -0.815,-1.061 -2.335,-1.262 -3.397,-0.448"
           style="fill:#313394;fill-opacity:1;fill-rule:nonzero;stroke:none"
           id="path15795"
           inkscape:connector-curvature="0" /><path
           d="m 309.949,407.013 -15.976,-24.347 -5.483,-12.821 8.361,11.159 z"
           style="fill:#313394;fill-opacity:1;fill-rule:nonzero;stroke:none"
           id="path15797"
           inkscape:connector-curvature="0" /><path
           d="m 254.301,402.017 c -0.815,1.061 -0.615,2.583 0.447,3.397 1.061,0.815 2.583,0.614 3.397,-0.447 0.814,-1.062 0.614,-2.582 -0.447,-3.398 -1.062,-0.814 -2.583,-0.613 -3.397,0.448"
           style="fill:#313394;fill-opacity:1;fill-rule:nonzero;stroke:none"
           id="path15799"
           inkscape:connector-curvature="0" /><path
           d="m 319.984,399.313 -21.732,-19.383 -8.615,-10.964 10.965,8.614 z"
           style="fill:#313394;fill-opacity:1;fill-rule:nonzero;stroke:none"
           id="path15801"
           inkscape:connector-curvature="0" /><path
           d="m 264.939,408.89 c -0.512,1.237 0.075,2.653 1.311,3.165 1.237,0.512 2.653,-0.076 3.166,-1.31 0.512,-1.237 -0.075,-2.655 -1.312,-3.167 -1.236,-0.513 -2.653,0.075 -3.165,1.312"
           style="fill:#313394;fill-opacity:1;fill-rule:nonzero;stroke:none"
           id="path15803"
           inkscape:connector-curvature="0" /><path
           d="m 327.685,389.278 -26.009,-13.098 -11.159,-8.361 12.82,5.483 z"
           style="fill:#313394;fill-opacity:1;fill-rule:nonzero;stroke:none"
           id="path15805"
           inkscape:connector-curvature="0" /><path
           d="m 276.994,412.774 c -0.175,1.328 0.759,2.544 2.086,2.719 1.326,0.175 2.543,-0.76 2.718,-2.086 0.175,-1.326 -0.759,-2.543 -2.085,-2.718 -1.327,-0.175 -2.545,0.758 -2.719,2.085"
           style="fill:#313394;fill-opacity:1;fill-rule:nonzero;stroke:none"
           id="path15807"
           inkscape:connector-curvature="0" /><path
           d="m 332.525,377.59 -28.512,-5.919 -12.943,-5.189 13.803,1.978 z"
           style="fill:#313394;fill-opacity:1;fill-rule:nonzero;stroke:none"
           id="path15809"
           inkscape:connector-curvature="0" /><path
           d="m 289.643,413.407 c 0.175,1.326 1.392,2.261 2.719,2.086 1.326,-0.175 2.26,-1.391 2.086,-2.719 -0.175,-1.327 -1.392,-2.26 -2.719,-2.085 -1.327,0.175 -2.26,1.392 -2.086,2.718"
           style="fill:#313394;fill-opacity:1;fill-rule:nonzero;stroke:none"
           id="path15811"
           inkscape:connector-curvature="0" /><path
           d="m 334.177,365.049 -29.073,1.661 -13.846,-1.661 13.846,-1.66 z"
           style="fill:#313394;fill-opacity:1;fill-rule:nonzero;stroke:none"
           id="path15813"
           inkscape:connector-curvature="0" /><path
           d="m 302.025,410.745 c 0.513,1.234 1.93,1.822 3.166,1.31 1.237,-0.512 1.824,-1.928 1.311,-3.165 -0.512,-1.237 -1.929,-1.825 -3.165,-1.312 -1.236,0.512 -1.823,1.93 -1.312,3.167"
           style="fill:#313394;fill-opacity:1;fill-rule:nonzero;stroke:none"
           id="path15815"
           inkscape:connector-curvature="0" /><path
           d="m 332.525,352.509 -27.652,9.129 -13.803,1.978 12.943,-5.189 z"
           style="fill:#313394;fill-opacity:1;fill-rule:nonzero;stroke:none"
           id="path15817"
           inkscape:connector-curvature="0" /><path
           d="m 313.297,404.967 c 0.814,1.061 2.336,1.262 3.397,0.447 1.062,-0.814 1.262,-2.336 0.447,-3.397 -0.814,-1.061 -2.335,-1.262 -3.397,-0.448 -1.061,0.816 -1.262,2.336 -0.447,3.398"
           style="fill:#313394;fill-opacity:1;fill-rule:nonzero;stroke:none"
           id="path15819"
           inkscape:connector-curvature="0" /><path
           d="m 327.685,340.82 -24.348,15.976 -12.82,5.484 11.159,-8.361 z"
           style="fill:#313394;fill-opacity:1;fill-rule:nonzero;stroke:none"
           id="path15821"
           inkscape:connector-curvature="0" /><path
           d="m 322.689,396.469 c 1.061,0.816 2.582,0.615 3.396,-0.447 0.815,-1.062 0.615,-2.583 -0.446,-3.397 -1.062,-0.814 -2.582,-0.613 -3.398,0.448 -0.814,1.061 -0.614,2.582 0.448,3.396"
           style="fill:#313394;fill-opacity:1;fill-rule:nonzero;stroke:none"
           id="path15823"
           inkscape:connector-curvature="0" /><path
           d="m 319.984,330.786 -19.382,21.733 -10.965,8.614 8.615,-10.964 z"
           style="fill:#313394;fill-opacity:1;fill-rule:nonzero;stroke:none"
           id="path15825"
           inkscape:connector-curvature="0" /><path
           d="m 329.562,385.831 c 1.235,0.513 2.653,-0.075 3.165,-1.312 0.511,-1.235 -0.076,-2.653 -1.311,-3.165 -1.236,-0.512 -2.654,0.076 -3.166,1.312 -0.513,1.235 0.075,2.653 1.312,3.165"
           style="fill:#313394;fill-opacity:1;fill-rule:nonzero;stroke:none"
           id="path15827"
           inkscape:connector-curvature="0" /><path
           d="m 309.949,323.085 -13.098,26.01 -8.361,11.158 5.483,-12.82 z"
           style="fill:#313394;fill-opacity:1;fill-rule:nonzero;stroke:none"
           id="path15829"
           inkscape:connector-curvature="0" /><path
           d="m 333.445,373.776 c 1.327,0.175 2.545,-0.758 2.719,-2.085 0.175,-1.328 -0.759,-2.545 -2.085,-2.72 -1.327,-0.173 -2.544,0.76 -2.719,2.087 -0.174,1.326 0.759,2.544 2.085,2.718"
           style="fill:#313394;fill-opacity:1;fill-rule:nonzero;stroke:none"
           id="path15831"
           inkscape:connector-curvature="0" /><path
           d="m 298.262,318.244 -5.92,28.514 -5.188,12.942 1.978,-13.803 z"
           style="fill:#313394;fill-opacity:1;fill-rule:nonzero;stroke:none"
           id="path15833"
           inkscape:connector-curvature="0" /><path
           d="m 443.456,158.785 c 0.041,0.052 0.086,0.114 0.134,0.197 -0.04,-0.068 -0.087,-0.135 -0.134,-0.197"
           style="fill:#296eb9;fill-opacity:1;fill-rule:nonzero;stroke:none"
           id="path15835"
           inkscape:connector-curvature="0" /></g></g></g></svg>