<?xml version="1.0" encoding="UTF-8"?>
<!DOCTYPE svg PUBLIC "-//W3C//DTD SVG 1.1//EN" "http://www.w3.org/Graphics/SVG/1.1/DTD/svg11.dtd">
<svg version="1.2" width="153.38mm" height="153.38mm" viewBox="0 0 15338 15338" preserveAspectRatio="xMidYMid" fill-rule="evenodd" stroke-width="28.222" stroke-linejoin="round" xmlns="http://www.w3.org/2000/svg" xmlns:ooo="http://xml.openoffice.org/svg/export" xmlns:xlink="http://www.w3.org/1999/xlink" xmlns:presentation="http://sun.com/xmlns/staroffice/presentation" xmlns:smil="http://www.w3.org/2001/SMIL20/" xmlns:anim="urn:oasis:names:tc:opendocument:xmlns:animation:1.0" xml:space="preserve">
 <defs class="ClipPathGroup">
  <clipPath id="presentation_clip_path" clipPathUnits="userSpaceOnUse">
   <rect x="0" y="0" width="15338" height="15338"/>
  </clipPath>
  <clipPath id="presentation_clip_path_shrink" clipPathUnits="userSpaceOnUse">
   <rect x="15" y="15" width="15308" height="15308"/>
  </clipPath>
 </defs>
 <defs class="TextShapeIndex">
  <g ooo:slide="id1" ooo:id-list="id3 id4 id5 id6 id7"/>
 </defs>
 <defs class="EmbeddedBulletChars">
  <g id="bullet-char-template-57356" transform="scale(0.00048828125,-0.00048828125)">
   <path d="M 580,1141 L 1163,571 580,0 -4,571 580,1141 Z"/>
  </g>
  <g id="bullet-char-template-57354" transform="scale(0.00048828125,-0.00048828125)">
   <path d="M 8,1128 L 1137,1128 1137,0 8,0 8,1128 Z"/>
  </g>
  <g id="bullet-char-template-10146" transform="scale(0.00048828125,-0.00048828125)">
   <path d="M 174,0 L 602,739 174,1481 1456,739 174,0 Z M 1358,739 L 309,1346 659,739 1358,739 Z"/>
  </g>
  <g id="bullet-char-template-10132" transform="scale(0.00048828125,-0.00048828125)">
   <path d="M 2015,739 L 1276,0 717,0 1260,543 174,543 174,936 1260,936 717,1481 1274,1481 2015,739 Z"/>
  </g>
  <g id="bullet-char-template-10007" transform="scale(0.00048828125,-0.00048828125)">
   <path d="M 0,-2 C -7,14 -16,27 -25,37 L 356,567 C 262,823 215,952 215,954 215,979 228,992 255,992 264,992 276,990 289,987 310,991 331,999 354,1012 L 381,999 492,748 772,1049 836,1024 860,1049 C 881,1039 901,1025 922,1006 886,937 835,863 770,784 769,783 710,716 594,584 L 774,223 C 774,196 753,168 711,139 L 727,119 C 717,90 699,76 672,76 641,76 570,178 457,381 L 164,-76 C 142,-110 111,-127 72,-127 30,-127 9,-110 8,-76 1,-67 -2,-52 -2,-32 -2,-23 -1,-13 0,-2 Z"/>
  </g>
  <g id="bullet-char-template-10004" transform="scale(0.00048828125,-0.00048828125)">
   <path d="M 285,-33 C 182,-33 111,30 74,156 52,228 41,333 41,471 41,549 55,616 82,672 116,743 169,778 240,778 293,778 328,747 346,684 L 369,508 C 377,444 397,411 428,410 L 1163,1116 C 1174,1127 1196,1133 1229,1133 1271,1133 1292,1118 1292,1087 L 1292,965 C 1292,929 1282,901 1262,881 L 442,47 C 390,-6 338,-33 285,-33 Z"/>
  </g>
  <g id="bullet-char-template-9679" transform="scale(0.00048828125,-0.00048828125)">
   <path d="M 813,0 C 632,0 489,54 383,161 276,268 223,411 223,592 223,773 276,916 383,1023 489,1130 632,1184 813,1184 992,1184 1136,1130 1245,1023 1353,916 1407,772 1407,592 1407,412 1353,268 1245,161 1136,54 992,0 813,0 Z"/>
  </g>
  <g id="bullet-char-template-8226" transform="scale(0.00048828125,-0.00048828125)">
   <path d="M 346,457 C 273,457 209,483 155,535 101,586 74,649 74,723 74,796 101,859 155,911 209,963 273,989 346,989 419,989 480,963 531,910 582,859 608,796 608,723 608,648 583,586 532,535 482,483 420,457 346,457 Z"/>
  </g>
  <g id="bullet-char-template-8211" transform="scale(0.00048828125,-0.00048828125)">
   <path d="M -4,459 L 1135,459 1135,606 -4,606 -4,459 Z"/>
  </g>
  <g id="bullet-char-template-61548" transform="scale(0.00048828125,-0.00048828125)">
   <path d="M 173,740 C 173,903 231,1043 346,1159 462,1274 601,1332 765,1332 928,1332 1067,1274 1183,1159 1299,1043 1357,903 1357,740 1357,577 1299,437 1183,322 1067,206 928,148 765,148 601,148 462,206 346,322 231,437 173,577 173,740 Z"/>
  </g>
 </defs>
 <g>
  <g id="id2" class="Master_Slide">
   <g id="bg-id2" class="Background"/>
   <g id="bo-id2" class="BackgroundObjects"/>
  </g>
 </g>
 <g class="SlideGroup">
  <g>
   <g id="container-id1">
    <g id="id1" class="Slide" clip-path="url(#presentation_clip_path)">
     <g class="Page">
      <g class="com.sun.star.drawing.PolyPolygonShape">
       <g id="id3">
        <rect class="BoundingBox" stroke="none" fill="none" x="9917" y="12744" width="452" height="363"/>
        <path fill="rgb(255,255,215)" stroke="none" d="M 10368,12744 L 10222,13013 10136,13106 10022,13009 9917,12907 10368,12744 Z"/>
       </g>
      </g>
      <g class="com.sun.star.drawing.ClosedBezierShape">
       <g id="id4">
        <rect class="BoundingBox" stroke="none" fill="none" x="169" y="169" width="15002" height="15002"/>
        <path fill="rgb(232,162,2)" stroke="none" d="M 10360,12752 L 9949,12911 10031,13041 10136,13098 10263,12980 10360,12752 Z M 10849,12402 L 10792,12540 10666,12695 10527,12785 10580,12829 10824,12829 11069,12699 11154,12618 11012,12483 10849,12402 Z M 10572,7754 L 10876,8434 11070,8350 11180,8081 11211,7860 11202,7741 10572,7754 Z M 14165,11420 C 13507,12560 12560,13507 11420,14165 10280,14823 8986,15170 7670,15170 6353,15170 5059,14823 3919,14165 2779,13507 1832,12560 1174,11420 516,10280 169,8986 169,7670 169,6353 516,5059 1174,3919 1832,2779 2779,1832 3919,1174 5059,516 6353,169 7669,169 8986,169 10280,516 11420,1174 12560,1832 13507,2779 14165,3919 14823,5059 15170,6353 15170,7669 15170,8986 14823,10280 14165,11420 Z"/>
       </g>
      </g>
      <g class="com.sun.star.drawing.PolyPolygonShape">
       <g id="id5">
        <rect class="BoundingBox" stroke="none" fill="none" x="10527" y="12410" width="596" height="449"/>
        <path fill="rgb(255,255,215)" stroke="none" d="M 10527,12797 L 10609,12711 10702,12614 10808,12516 10865,12410 10979,12451 11093,12577 11122,12667 10849,12842 10682,12858 10527,12797 Z"/>
       </g>
      </g>
      <g class="com.sun.star.drawing.PolyPolygonShape">
       <g id="id6">
        <rect class="BoundingBox" stroke="none" fill="none" x="10576" y="7753" width="596" height="686"/>
        <path fill="rgb(255,255,166)" stroke="none" d="M 10576,7776 L 10880,8438 11101,8226 11171,8063 11167,7847 11154,7754 10576,7776 Z"/>
       </g>
      </g>
      <g class="Graphic">
       <g id="id7">
        <rect class="BoundingBox" stroke="none" fill="none" x="1" y="1" width="15338" height="15338"/>
        <defs>
         <clipPath id="clip_path_1" clipPathUnits="userSpaceOnUse">
          <path d="M 1,1 L 15338,1 15338,15338 1,15338 1,1 Z"/>
         </clipPath>
        </defs>
        <g clip-path="url(#clip_path_1)">
         <path fill="rgb(16,15,13)" stroke="none" d="M 2858,11994 C 2854,11993 2848,11993 2842,11993 2824,11992 2802,11993 2779,11996 2708,12006 2625,12033 2616,12081 2611,12104 2624,12132 2665,12164 2681,12177 2702,12191 2727,12206 2759,12224 2791,12236 2822,12243 2883,12257 2939,12250 2982,12231 3018,12215 3045,12191 3058,12164 3086,12104 3047,12030 2892,12000 2881,11997 2870,11996 2858,11994 Z M 3538,11734 C 3522,11734 3505,11736 3487,11738 3415,11748 3331,11777 3326,11827 3324,11858 3353,11898 3438,11947 3454,11957 3470,11964 3486,11970 3561,12000 3631,11997 3683,11977 3715,11965 3741,11946 3758,11925 3808,11859 3772,11764 3570,11735 3561,11734 3550,11734 3538,11734 Z M 3942,11404 C 3948,11523 4006,11614 4095,11585 4125,11575 4150,11549 4170,11514 4177,11501 4184,11487 4190,11472 4216,11407 4229,11324 4229,11248 4229,11110 4185,10997 4095,11063 3980,11145 3936,11288 3942,11404 Z M 10001,12913 C 9992,12917 9989,12922 9990,12931 9993,12967 10056,13026 10122,13044 10146,13032 10262,12892 10302,12808 10312,12788 10313,12779 10313,12775 10283,12781 10134,12851 10060,12885 10036,12897 10015,12906 10001,12913 Z M 13610,11226 C 13604,11220 13597,11214 13588,11208 13622,10928 13417,10332 12989,9476 12805,9110 12832,9009 12849,8942 12857,8913 12861,8896 12844,8865 12692,8578 12545,8178 12391,7754 12102,6965 11775,6071 11340,5799 10828,5479 10325,4976 9882,4531 9633,4281 9397,4044 9194,3878 9203,3874 9212,3871 9221,3868 9226,3866 9230,3864 9235,3863 9274,3847 9313,3829 9349,3806 9386,3784 9420,3758 9450,3728 9479,3698 9504,3664 9525,3628 9501,3662 9473,3693 9441,3719 9409,3745 9374,3767 9337,3785 9301,3802 9262,3816 9223,3828 9210,3831 9197,3834 9184,3838 9177,3839 9170,3841 9163,3843 9160,3844 9157,3845 9154,3845 9148,3841 9142,3836 9137,3831 L 9128,3825 9134,3815 C 9138,3807 9143,3799 9147,3791 9160,3783 9174,3774 9187,3766 9196,3759 9206,3753 9215,3746 9270,3709 9322,3668 9368,3620 9413,3572 9453,3517 9477,3456 9503,3394 9512,3328 9507,3263 9508,3328 9494,3393 9466,3451 9438,3508 9397,3559 9350,3602 9307,3642 9259,3676 9209,3707 9204,3710 9200,3712 9195,3715 9189,3719 9182,3723 9176,3726 9192,3684 9204,3639 9212,3591 9217,3585 9222,3579 9226,3573 9232,3565 9237,3557 9243,3549 9293,3478 9337,3403 9371,3324 9409,3236 9436,3142 9443,3047 9451,2951 9437,2854 9401,2766 9433,2855 9443,2952 9431,3045 9419,3139 9390,3229 9349,3314 9320,3372 9287,3427 9249,3480 9240,3493 9231,3505 9222,3517 9247,3264 9186,2974 9112,2803 9077,2720 9047,2687 9030,2683 8976,2671 8777,2867 8617,3025 8435,3204 8320,3314 8272,3314 8229,3314 8188,3270 8141,3219 8070,3141 7997,3061 7910,3127 7891,3141 7872,3160 7849,3182 7790,3240 7716,3312 7596,3354 7572,3363 7541,3366 7504,3366 7487,3366 7468,3365 7449,3364 L 7413,3336 6720,2803 7189,3293 7220,3326 C 7090,3297 6942,3254 6792,3205 6771,3189 6750,3173 6728,3157 6644,3092 6560,3024 6477,2955 6371,2867 6264,2780 6154,2698 6247,2799 6337,2903 6425,3008 6441,3027 6457,3046 6473,3064 6484,3078 6496,3092 6507,3105 6375,3055 6251,3005 6148,2958 6125,2939 6101,2918 6077,2898 6075,2896 6073,2894 6070,2892 5974,2808 5875,2727 5773,2652 5819,2702 5862,2752 5905,2803 5920,2822 5936,2841 5951,2861 5940,2854 5930,2848 5921,2842 5844,2792 5761,2767 5668,2761 5649,2752 5630,2743 5611,2734 5527,2696 5444,2657 5361,2616 5251,2561 5141,2505 5043,2430 5134,2515 5239,2582 5343,2648 5394,2680 5446,2712 5498,2743 5510,2750 5522,2757 5534,2764 5480,2769 5422,2779 5359,2793 5340,2789 5320,2785 5301,2781 5241,2768 5182,2755 5123,2740 5064,2725 5006,2708 4949,2687 4892,2666 4836,2641 4788,2603 4832,2645 4886,2677 4941,2704 4997,2731 5054,2754 5112,2775 5141,2786 5171,2797 5201,2807 5215,2812 5230,2816 5244,2821 5197,2833 5148,2847 5096,2862 5079,2858 5063,2854 5046,2851 4981,2838 4917,2829 4853,2820 4767,2808 4681,2796 4597,2775 4514,2754 4432,2724 4362,2670 4424,2733 4504,2777 4586,2810 4668,2844 4754,2868 4838,2892 4850,2896 4861,2899 4873,2903 4888,2907 4902,2911 4916,2916 4902,2920 4887,2925 4871,2929 L 4868,2930 C 4798,2951 4718,2970 4630,2986 4613,2980 4595,2975 4578,2970 4520,2953 4462,2937 4405,2921 4305,2894 4205,2866 4108,2833 4011,2799 3914,2761 3831,2698 3906,2771 4000,2822 4094,2867 4188,2913 4285,2952 4381,2991 4385,2993 4388,2994 4392,2996 4407,3002 4423,3008 4439,3015 4407,3019 4374,3023 4341,3026 4313,3020 4285,3015 4257,3009 4191,2997 4126,2985 4061,2973 3915,2945 3769,2919 3625,2886 3553,2870 3481,2852 3411,2829 3341,2807 3271,2781 3212,2736 3267,2786 3336,2818 3405,2847 3474,2875 3544,2899 3615,2922 3735,2960 3857,2994 3978,3027 4000,3033 4022,3039 4044,3045 4048,3046 4051,3047 4055,3048 3954,3053 3850,3056 3742,3057 3701,3049 3660,3041 3620,3033 3619,3033 3617,3033 3616,3032 3551,3020 3487,3009 3424,2993 3361,2978 3299,2956 3239,2927 3180,2899 3123,2863 3069,2822 3115,2872 3165,2918 3220,2959 3253,2983 3288,3005 3323,3025 3340,3034 3358,3043 3375,3052 3354,3051 3333,3050 3313,3049 3274,3039 3235,3029 3197,3019 3152,3006 3107,2994 3062,2980 2967,2951 2872,2919 2781,2881 2755,2870 2729,2858 2704,2846 2639,2815 2577,2780 2520,2736 2569,2785 2626,2827 2685,2865 2711,2882 2737,2898 2764,2914 2817,2944 2872,2972 2927,2999 2948,3009 2970,3019 2991,3029 2850,3018 2710,3003 2573,2984 2259,3326 1979,3698 1737,4098 926,5673 662,7281 952,8892 1310,10884 2385,12135 2715,12479 2723,12477 2736,12472 2754,12467 2759,12471 2765,12475 2770,12479 2772,12481 2774,12483 2776,12485 2792,12500 2803,12516 2813,12537 2824,12563 2830,12593 2834,12624 2838,12649 2839,12674 2841,12700 2845,12681 2850,12661 2853,12642 2861,12605 2865,12566 2861,12524 2858,12504 2852,12483 2843,12463 2840,12455 2836,12448 2832,12441 2873,12426 2924,12409 2982,12388 2989,12395 2997,12401 3004,12407 3019,12419 3033,12431 3046,12444 3064,12461 3078,12481 3089,12505 3108,12550 3112,12606 3115,12660 3127,12607 3139,12553 3133,12493 3128,12462 3116,12429 3099,12401 3094,12393 3089,12385 3084,12378 3079,12371 3075,12363 3070,12356 3114,12340 3160,12323 3209,12304 3216,12311 3223,12317 3230,12323 3235,12327 3241,12332 3246,12337 3274,12361 3300,12384 3322,12409 3340,12427 3354,12448 3365,12473 3382,12516 3387,12569 3389,12620 3400,12570 3411,12519 3404,12462 3399,12431 3388,12398 3371,12370 3355,12341 3336,12314 3318,12289 3315,12284 3312,12280 3309,12276 3307,12273 3305,12270 3303,12268 3346,12251 3389,12234 3434,12216 3441,12222 3447,12228 3454,12234 3475,12253 3496,12272 3517,12291 3546,12318 3574,12345 3598,12374 3616,12394 3629,12415 3640,12441 3657,12482 3662,12532 3664,12580 3674,12533 3682,12484 3676,12431 3671,12400 3660,12367 3643,12339 3623,12301 3600,12267 3576,12234 3567,12221 3557,12208 3548,12195 3543,12188 3538,12181 3533,12174 3573,12157 3614,12140 3655,12122 3661,12128 3668,12134 3675,12140 3713,12175 3751,12210 3788,12245 3819,12275 3849,12306 3874,12339 3892,12360 3905,12383 3916,12409 3931,12448 3936,12495 3938,12541 3947,12496 3954,12450 3948,12400 3942,12369 3931,12336 3916,12308 3895,12266 3869,12228 3844,12192 3820,12159 3797,12127 3773,12096 3768,12089 3763,12082 3758,12075 3795,12058 3833,12041 3870,12023 3876,12029 3883,12035 3889,12041 3947,12093 4004,12145 4058,12199 4092,12233 4124,12267 4150,12304 4167,12326 4181,12350 4192,12377 4206,12414 4211,12458 4212,12501 4221,12458 4226,12415 4220,12369 4214,12338 4203,12306 4188,12277 4166,12232 4139,12190 4111,12151 4072,12095 4031,12043 3991,11991 3986,11984 3980,11978 3975,11971 4009,11954 4043,11936 4076,11919 4083,11924 4090,11930 4096,11936 4098,11937 4099,11938 4101,11940 4179,12009 4257,12079 4329,12153 4365,12190 4398,12228 4426,12269 4443,12292 4456,12317 4467,12345 4480,12380 4486,12421 4486,12461 4494,12421 4497,12381 4491,12338 4485,12307 4475,12275 4460,12246 4437,12197 4408,12152 4379,12109 4322,12029 4261,11953 4200,11879 4196,11874 4191,11869 4187,11864 4186,11862 4185,11861 4184,11860 4214,11843 4244,11826 4273,11808 4279,11814 4286,11819 4292,11825 4314,11843 4335,11860 4356,11878 4440,11952 4524,12026 4600,12107 4638,12147 4673,12189 4702,12234 4719,12258 4732,12285 4743,12313 4755,12346 4761,12384 4761,12421 4767,12384 4769,12346 4763,12307 4756,12276 4747,12244 4732,12215 4708,12163 4678,12114 4646,12067 4581,11974 4509,11889 4437,11804 4423,11789 4410,11774 4396,11759 4391,11753 4385,11747 4380,11741 4406,11724 4431,11706 4456,11689 4463,11694 4469,11700 4476,11705 4521,11742 4567,11779 4612,11817 4702,11895 4791,11974 4871,12061 4911,12104 4948,12149 4978,12199 4995,12225 5008,12252 5019,12281 5029,12312 5035,12347 5035,12381 5041,12347 5041,12312 5035,12277 5028,12245 5018,12213 5004,12184 4980,12128 4948,12076 4913,12026 4844,11926 4766,11834 4686,11744 4650,11705 4614,11666 4578,11627 4572,11621 4567,11615 4561,11609 4582,11592 4602,11575 4622,11557 4628,11563 4635,11568 4641,11573 4717,11633 4793,11694 4867,11756 4963,11838 5058,11921 5142,12015 5183,12061 5223,12110 5254,12164 5271,12191 5284,12219 5294,12249 5301,12269 5306,12291 5308,12313 5306,12314 5303,12315 5301,12316 5195,12365 5093,12424 5000,12494 5051,12465 5099,12433 5153,12410 5204,12383 5258,12363 5312,12341 5366,12320 5421,12302 5475,12283 5531,12266 5586,12249 5642,12234 5865,12172 6092,12124 6320,12082 6549,12042 6778,12006 7008,11975 7068,11966 7128,11959 7188,11951 7211,11948 7234,11945 7257,11942 7566,12023 7833,12147 8064,12296 8053,12299 8042,12302 8031,12305 7953,12326 7875,12347 7797,12368 7606,12423 7415,12479 7226,12543 7037,12606 6850,12675 6667,12756 6576,12797 6485,12840 6399,12891 6356,12916 6314,12944 6274,12975 6235,13006 6198,13040 6171,13082 6202,13043 6242,13013 6283,12987 6324,12960 6368,12937 6412,12915 6501,12872 6593,12835 6685,12801 6870,12732 7059,12673 7249,12617 7439,12562 7630,12508 7822,12459 7927,12431 8033,12404 8139,12377 8150,12374 8161,12372 8171,12369 8340,12489 8488,12620 8619,12755 8611,12759 8603,12763 8595,12767 8547,12792 8499,12817 8451,12843 8320,12914 8191,12991 8069,13078 8039,13101 8008,13122 7979,13146 L 7935,13181 7893,13218 C 7838,13269 7785,13323 7747,13388 7794,13330 7852,13283 7911,13239 L 7955,13207 8002,13177 C 8032,13156 8064,13138 8096,13119 8222,13043 8354,12976 8487,12912 8543,12885 8600,12858 8657,12832 8665,12828 8673,12825 8680,12821 8854,13010 8995,13202 9111,13375 9105,13381 9099,13386 9093,13392 9081,13402 9070,13413 9059,13423 L 8978,13499 C 8925,13549 8874,13603 8822,13655 L 8749,13738 8712,13779 C 8700,13793 8689,13808 8678,13822 8656,13852 8632,13880 8611,13910 L 8551,14002 C 8724,13796 8927,13622 9134,13454 L 9153,13438 C 9198,13507 9239,13571 9277,13630 9394,13815 9479,13948 9546,13983 9827,14132 10651,13943 10825,13691 10857,13645 10872,13578 10879,13500 10874,13184 10751,12972 10398,13153 10241,13233 10044,13128 9842,12934 L 9896,12897 C 10018,12818 10140,12739 10266,12666 10297,12648 10328,12628 10359,12610 L 10454,12557 C 10518,12522 10581,12486 10646,12454 10773,12388 10902,12325 11033,12268 11131,12365 11224,12454 11310,12527 11328,12589 11343,12653 11354,12717 11368,12795 11377,12875 11380,12955 11383,13028 11380,13102 11374,13175 11366,13249 11355,13321 11339,13394 11326,13454 11309,13513 11290,13572 11263,13654 11231,13734 11193,13811 11161,13878 11125,13943 11086,14006 11046,14069 11004,14130 10956,14187 11006,14131 11050,14071 11091,14009 11132,13948 11170,13883 11204,13817 11248,13733 11286,13645 11317,13555 11334,13504 11350,13452 11363,13399 11382,13327 11395,13253 11405,13179 11413,13104 11418,13029 11417,12954 11417,12874 11410,12794 11398,12715 11392,12669 11383,12624 11373,12579 11427,12621 11476,12654 11520,12677 11524,12678 11528,12679 11532,12679 11532,12681 11533,12682 11534,12684 11537,12690 11540,12697 11542,12704 11543,12705 11543,12706 11543,12706 11563,12757 11578,12810 11589,12863 11613,12975 11622,13090 11625,13204 11625,13254 11625,13304 11623,13353 11621,13418 11617,13484 11611,13549 11600,13663 11585,13778 11563,13891 11589,13779 11608,13665 11623,13550 11632,13480 11639,13410 11643,13339 11646,13294 11648,13249 11649,13204 11651,13088 11646,12972 11626,12856 11617,12809 11606,12762 11591,12715 11588,12706 11586,12697 11583,12688 11635,12698 11684,12705 11729,12711 11736,12720 11742,12729 11748,12738 11771,12772 11792,12807 11810,12843 11837,12899 11861,12957 11879,13017 11892,13058 11903,13099 11912,13140 11916,13160 11920,13180 11924,13200 11935,13262 11942,13325 11944,13388 11946,13325 11943,13261 11936,13198 11934,13175 11930,13152 11927,13129 11920,13089 11913,13050 11903,13010 11889,12948 11868,12887 11843,12828 11832,12799 11818,12771 11803,12744 11798,12735 11793,12726 11788,12718 12015,12738 12158,12697 12353,12533 12517,12395 12574,12268 12620,12165 12649,12101 12674,12046 12719,12008 12768,11875 12773,11783 12641,11519 12506,11250 12524,10851 12818,10901 12830,10903 12843,10905 12855,10909 12842,10935 12833,10962 12828,10987 12860,10963 12902,10928 12920,10902 12926,10894 12930,10887 12930,10881 12930,10844 12361,10605 12362,10597 12362,10597 12435,10341 12460,10276 12484,10211 13020,10881 13020,10881 L 12939,10928 12827,10993 C 12802,11148 12930,11264 13017,11213 13024,11209 13030,11204 13037,11198 13079,11155 13178,11141 13277,11148 13407,11157 13536,11202 13532,11263 13472,11399 13428,11505 13374,11594 13456,11474 13535,11352 13610,11227 13610,11227 13610,11226 13610,11226 Z M 12793,12002 C 12792,12004 12792,12005 12792,12006 12977,11937 13110,11879 13211,11820 13246,11773 13282,11725 13316,11677 13217,11800 13075,11892 12793,12002 Z M 10892,12442 C 10834,12435 10845,12610 10592,12763 10560,12782 10581,12802 10618,12801 10839,12792 11010,12691 11059,12659 11070,12652 11076,12641 11075,12628 11072,12543 10953,12450 10892,12442 Z M 13092,13092 C 11644,14540 9718,15338 7669,15338 5621,15338 3695,14540 2247,13092 799,11644 1,9718 1,7669 1,5621 799,3695 2247,2247 3695,799 5621,1 7669,1 9718,1 11644,799 13092,2247 14540,3695 15338,5621 15338,7669 15338,9718 14540,11644 13092,13092 Z M 5953,10235 C 6060,10378 6109,10418 6179,10303 6250,10188 6245,9937 6060,9982 6004,9996 5845,10092 5953,10235 Z M 9766,13293 C 9804,13244 9704,13128 9655,13244 9613,13343 9728,13343 9766,13293 Z M 9243,12982 C 9218,12939 9047,12930 9116,13021 9185,13112 9268,13025 9243,12982 Z M 10795,8678 C 10842,8692 10916,8686 10871,8624 10827,8563 10703,8336 10723,8436 10743,8539 10748,8664 10795,8678 Z M 10810,8867 C 10854,8952 10965,8853 10947,8819 10929,8785 10920,8712 10879,8729 10829,8751 10766,8782 10810,8867 Z M 11754,9436 C 11696,9497 11600,9499 11643,9592 11686,9685 11756,9596 11771,9549 11785,9502 11806,9382 11754,9436 Z M 11843,10024 C 11905,10046 12039,9811 11921,9848 11857,9868 11781,10003 11843,10024 Z M 11752,9796 C 11802,9842 11876,9730 11878,9700 11880,9669 11897,9592 11833,9629 11801,9648 11703,9751 11752,9796 Z M 11655,9865 C 11655,9840 11682,9765 11635,9782 11619,9787 11480,9895 11524,9949 11567,10003 11655,9891 11655,9865 Z M 11324,9848 C 11326,9815 11361,9705 11297,9746 11278,9763 11103,9952 11181,9997 11260,10042 11321,9881 11324,9848 Z M 11099,9772 C 11091,9778 10866,9924 10936,9984 11006,10044 11037,10032 11082,9984 11128,9937 11160,9727 11099,9772 Z M 10930,9666 C 10914,9674 10730,9855 10765,9885 10800,9914 10880,9918 10930,9848 10979,9778 11016,9624 10930,9666 Z M 11460,9974 C 11458,9959 11455,9914 11412,9928 11354,9948 11309,10023 11359,10060 11410,10097 11462,9989 11460,9974 Z M 2439,4006 C 2442,3958 2481,3913 2515,3874 2545,3840 2574,3808 2566,3786 2559,3766 2520,3749 2450,3737 2441,3735 2432,3734 2422,3734 2325,3734 2186,3810 2117,3904 2088,3944 2060,4005 2092,4063 2143,4158 2255,4141 2288,4134 2372,4115 2437,4060 2439,4006 Z M 1277,9055 C 1516,9236 1755,8620 1417,8553 1155,8501 1037,8875 1277,9055 Z M 1794,9690 C 1611,9572 1376,9851 1631,10141 1887,10431 2448,10065 2357,9889 2266,9714 2101,9889 1794,9690 Z M 2125,11240 C 2340,11627 2779,11062 2452,10788 2058,10458 1909,10852 2125,11240 Z M 2996,11846 C 3367,11677 3293,10905 2996,10913 2792,10919 2625,12015 2996,11846 Z M 2291,10476 C 2588,10625 2761,10626 2811,10502 2860,10378 2961,10038 2811,10077 2603,10131 1994,10327 2291,10476 Z M 3466,11389 C 3565,11565 3834,11442 3811,11300 3788,11157 3798,10457 3664,10721 3557,10931 3367,11212 3466,11389 Z M 9316,12844 C 9316,12901 9362,12946 9418,12946 9474,12946 9520,12901 9520,12844 9520,12788 9474,12742 9418,12742 9362,12742 9316,12788 9316,12844 Z M 10842,7955 C 10842,8018 10868,8069 10900,8069 10933,8069 10959,8018 10959,7955 10959,7893 10933,7842 10900,7842 10868,7842 10842,7893 10842,7955 Z M 8618,5827 C 8722,5831 8910,5587 8877,5538 8844,5488 8504,5526 8424,5700 8359,5844 8514,5822 8618,5827 Z M 8118,6120 C 8198,6185 8298,5950 8267,5846 8236,5742 8064,5917 8025,6023 7981,6141 8037,6054 8118,6120 Z M 2093,4749 C 2125,4642 2151,4329 1780,4304 1636,4294 1430,4617 1621,4749 1813,4881 2061,4856 2093,4749 Z M 1834,6050 C 1804,5904 1586,5701 1461,5763 1392,5798 996,6064 1211,6203 1425,6341 1864,6196 1834,6050 Z M 1351,8287 C 1734,8049 1784,7849 1722,7703 1660,7557 1458,7454 1376,7646 1333,7746 967,8526 1351,8287 Z M 1549,6605 C 1423,6698 1128,6957 1177,7154 1227,7351 1916,7028 1986,6940 2056,6852 1733,6467 1549,6605 Z M 2528,8678 C 2223,8332 2085,7570 1941,7891 1889,8005 1705,9271 1986,9274 2266,9277 2692,8865 2528,8678 Z M 3233,10000 C 3180,10192 3028,10664 3183,10684 3338,10704 3610,10513 3610,10394 3610,10275 3287,9806 3233,10000 Z M 2811,8859 C 2758,8966 2330,9774 2638,9785 2947,9796 3144,9619 3082,9436 3021,9252 2889,8697 2811,8859 Z M 4078,10465 C 4196,10316 4309,10176 4209,10079 4109,9982 3785,9785 3811,9958 3837,10129 3961,10613 4078,10465 Z M 3367,9691 C 3429,9753 3887,9785 3800,9571 3714,9357 3402,8745 3367,8948 3327,9183 3305,9629 3367,9691 Z M 4209,9122 C 4085,9054 3819,8945 3772,9055 3727,9164 4634,10489 4600,10205 4567,9920 4334,9190 4209,9122 Z M 6602,11735 C 6885,11784 7323,11788 7240,11716 7157,11644 7119,11549 6981,11544 6619,11531 6319,11687 6602,11735 Z M 5410,10938 C 5244,10582 4680,10320 4702,10570 4724,10819 5170,11238 5309,11224 5466,11207 5492,11114 5410,10938 Z M 5485,7170 C 5454,7075 4841,7421 4784,7537 4750,7605 4793,7772 5052,7877 5312,7983 5516,7265 5485,7170 Z M 4461,8085 C 4245,8192 4171,8208 4243,8360 4431,8759 4753,8030 4697,8004 4641,7978 4520,8056 4461,8085 Z M 3066,8502 C 2928,8592 3235,8619 3495,8594 3755,8569 3843,8708 4017,8859 4190,9010 4029,8263 3967,8185 3905,8108 3157,8442 3066,8502 Z M 11332,9594 C 11382,9579 11362,9321 11284,9396 11251,9428 11283,9609 11332,9594 Z M 11144,9592 C 11210,9611 11239,9339 11161,9407 11086,9471 11078,9573 11144,9592 Z M 11041,9409 C 11115,9413 11107,9195 11041,9205 10999,9211 10967,9406 11041,9409 Z M 10876,9205 C 10969,9221 11061,8908 10900,9018 10823,9071 10783,9189 10876,9205 Z M 10454,8713 C 10573,8726 10834,8535 10472,8411 10316,8358 10334,8701 10454,8713 Z M 10688,9018 C 10771,8924 10713,8712 10430,8849 10332,8896 10606,9112 10688,9018 Z M 9558,8579 C 9482,8599 9530,8791 9586,8832 9664,8887 9713,8801 9726,8713 9738,8626 9633,8559 9558,8579 Z M 9655,8968 C 9584,9001 9631,9199 9655,9305 9693,9478 9870,9273 9873,9174 9876,9075 9726,8935 9655,8968 Z M 9973,9226 C 9994,9480 10179,9413 10307,9343 10435,9273 10134,9211 10053,9107 9971,9003 9967,9145 9973,9226 Z M 10670,9244 C 10658,9174 10458,9328 10358,9397 10293,9440 10381,9533 10483,9586 10585,9640 10682,9314 10670,9244 Z M 10829,9545 C 10938,9640 10963,9388 10938,9318 10913,9248 10758,9484 10829,9545 Z M 11536,9690 C 11585,9654 11552,9450 11519,9413 11486,9376 11413,9628 11404,9666 11390,9721 11486,9726 11536,9690 Z M 5155,9888 C 5027,9855 4617,9804 4877,10106 5137,10409 5572,10534 5662,10451 5873,10259 5347,9939 5155,9888 Z M 5427,9370 C 5288,9315 5167,9368 5210,9511 5254,9654 5730,9836 5786,9785 5841,9735 5742,9493 5427,9370 Z M 4752,8794 C 4536,8646 4339,8769 4424,8941 4505,9107 4561,9794 4851,9504 5051,9304 4978,8949 4752,8794 Z M 1635,5175 C 1580,5179 1555,5181 1547,5200 1538,5220 1556,5244 1605,5307 1624,5332 1647,5362 1675,5400 1858,5650 2042,5776 2225,5776 2315,5776 2406,5745 2496,5683 2605,5607 2632,5489 2568,5360 2483,5186 2248,5034 2062,5093 1852,5160 1711,5170 1635,5175 Z M 2747,5862 C 2639,5862 1968,6222 1948,6390 1945,6417 1957,6452 2029,6465 2105,6479 2183,6496 2258,6512 2411,6546 2559,6578 2674,6578 2740,6578 2796,6567 2836,6541 2872,6517 2894,6481 2903,6434 2939,6241 2965,6031 2883,5927 2852,5887 2807,5865 2749,5862 2749,5862 2748,5862 2747,5862 Z M 3043,5105 C 3130,5105 3213,5093 3282,5066 3362,5035 3414,4986 3437,4922 3485,4786 3362,4721 3207,4638 3068,4564 2895,4471 2797,4298 2750,4215 2699,4205 2666,4211 2558,4231 2465,4433 2437,4616 2409,4800 2448,4939 2541,4988 2671,5056 2866,5105 3043,5105 Z M 3053,3691 C 3283,3691 3516,3653 3554,3593 3563,3578 3562,3561 3550,3546 3535,3526 3518,3502 3501,3476 3404,3336 3258,3123 2957,3166 2746,3196 2582,3362 2577,3491 2575,3541 2595,3629 2746,3663 2833,3682 2943,3691 3053,3691 Z M 3247,4275 C 3323,4355 3448,4397 3600,4397 3673,4397 3753,4388 3836,4368 4029,4321 4192,4231 4214,4156 4243,4057 4258,3821 4157,3724 4113,3682 4054,3673 3982,3698 3974,3701 3962,3705 3948,3710 3776,3766 3254,3937 3203,4138 3191,4186 3206,4232 3247,4275 Z M 4334,3664 C 4366,3668 4398,3669 4428,3669 4609,3669 4753,3609 4779,3515 4793,3468 4785,3373 4579,3275 4455,3216 4028,3046 3734,3343 3674,3404 3652,3454 3667,3497 3704,3600 3950,3625 4211,3651 4252,3655 4293,3660 4334,3664 Z M 6552,3796 C 6753,3796 7050,3759 7136,3660 7164,3628 7169,3590 7151,3551 7077,3388 6898,3298 6707,3311 L 6699,3320 C 6697,3318 6694,3315 6692,3313 6634,3318 6574,3333 6517,3359 6373,3423 6294,3568 6301,3671 6305,3727 6335,3767 6382,3781 6413,3790 6476,3796 6552,3796 Z M 6055,3462 C 6096,3450 6120,3428 6124,3397 6138,3317 6013,3181 5754,2995 5741,2985 5728,2977 5715,2970 5681,2958 5646,2947 5611,2936 5523,2933 5458,3005 5377,3094 5290,3192 5180,3313 4996,3385 4977,3392 4934,3409 4944,3436 4960,3482 5193,3497 5443,3497 5712,3497 5999,3479 6055,3462 Z M 5587,3686 C 5479,3636 5415,3677 5379,3720 5259,3869 5292,4280 5361,4373 5383,4402 5417,4417 5460,4417 5504,4417 5559,4401 5624,4370 5878,4246 6211,3906 6174,3766 6164,3730 6151,3709 6132,3699 6105,3685 6073,3696 6028,3711 5940,3742 5806,3788 5587,3686 Z M 4353,4219 C 4379,4346 4572,4449 4743,4540 4775,4557 4805,4573 4833,4588 4869,4608 4901,4618 4931,4618 4955,4618 4977,4612 4996,4600 5073,4552 5114,4411 5105,4222 5097,4047 5043,3835 4944,3786 4737,3682 4558,3875 4393,4081 4357,4126 4343,4173 4353,4219 Z M 4245,4419 C 4109,4395 4076,4465 4038,4546 4000,4629 3952,4733 3769,4778 3732,4787 3728,4810 3730,4824 3741,4932 4195,5196 4505,5209 4516,5210 4527,5210 4538,5210 4739,5210 4792,5129 4799,5059 4823,4836 4432,4452 4245,4419 Z M 4249,7981 C 4292,7981 4344,7948 4412,7879 4649,7632 4621,7397 4598,7307 4568,7190 4494,7101 4406,7073 4261,7029 4058,7169 3932,7318 3842,7423 3803,7515 3827,7565 3836,7583 3858,7603 3912,7601 4033,7594 4076,7707 4118,7817 4148,7895 4176,7968 4233,7980 4238,7981 4244,7981 4249,7981 Z M 3213,7477 C 3020,7479 2892,7552 2878,7668 2852,7882 2753,8018 2693,8099 2654,8152 2631,8184 2644,8211 2657,8237 2700,8248 2810,8252 2813,8252 2817,8252 2820,8252 3013,8252 3502,8077 3667,7895 3710,7847 3729,7802 3723,7760 3699,7582 3449,7477 3218,7477 3217,7477 3215,7477 3213,7477 Z M 2376,6949 C 2376,6967 2394,6976 2413,6985 2434,6995 2458,7007 2459,7028 2461,7066 2396,7154 2074,7353 2040,7374 2025,7397 2028,7421 2034,7462 2093,7486 2142,7500 2199,7516 2277,7525 2366,7525 2620,7525 2963,7445 3166,7193 3197,7155 3193,7107 3156,7060 3047,6921 2669,6785 2459,6884 2398,6913 2376,6931 2376,6949 Z M 3988,6459 C 3920,6343 3803,6301 3659,6339 3504,6381 3069,6660 3084,6769 3088,6798 3116,6812 3168,6812 3456,6812 3590,6921 3679,6994 3727,7032 3765,7064 3809,7064 3843,7064 3880,7045 3927,6997 4052,6868 4081,6617 3988,6459 Z M 7117,10052 C 6893,9986 6662,9949 6737,10157 6812,10366 7214,10364 7227,10303 7239,10242 7277,10100 7117,10052 Z M 7611,10417 C 7430,10330 7243,10512 7447,10587 7651,10662 7975,10592 7611,10417 Z M 8384,11724 C 8494,11715 8604,11707 8714,11699 8697,11667 8661,11630 8592,11585 8431,11481 8151,11529 8354,11727 8364,11726 8374,11725 8384,11724 Z M 8724,11846 C 8722,11825 8725,11805 8727,11785 8636,11793 8545,11802 8454,11811 8624,11934 8732,11913 8724,11846 Z M 8456,12299 C 8612,12435 8787,12548 8920,12613 8974,12589 9027,12565 9082,12542 9031,12438 8962,12307 8852,12205 8720,12235 8588,12267 8456,12299 Z M 8369,12219 C 8371,12218 8373,12218 8374,12217 8501,12187 8628,12158 8755,12129 8719,12107 8681,12087 8638,12073 8412,11994 8096,11946 8369,12219 Z M 9044,12663 C 9106,12681 9139,12672 9123,12630 9097,12641 9070,12652 9044,12663 Z M 7447,11652 C 7503,11714 7582,11761 7664,11794 7672,11793 7680,11792 7688,11791 7802,11779 7916,11767 8030,11756 8010,11702 7928,11624 7751,11518 7640,11452 7193,11372 7447,11652 Z M 6887,11181 C 7049,11355 7601,11355 7288,11063 7181,10962 6724,11007 6887,11181 Z M 6440,10329 C 6408,10467 6307,10533 6670,10738 7033,10943 7136,10787 7035,10634 6934,10481 6465,10219 6440,10329 Z M 8008,9318 C 7913,9265 7539,9296 7669,9513 7800,9730 7956,9782 8014,9666 8072,9549 8141,9393 8008,9318 Z M 7495,9666 C 7310,9587 6909,9353 7074,9690 7239,10027 7346,10242 7495,10094 7643,9945 7657,9735 7495,9666 Z M 8064,9949 C 7902,9850 7686,9880 7735,10131 7783,10382 8317,10506 8355,10452 8394,10398 8287,10085 8064,9949 Z M 8588,11083 C 8384,11030 8315,11083 8377,11201 8439,11318 8631,11307 8674,11288 8717,11269 8794,11137 8588,11083 Z M 7746,11286 C 7852,11460 8550,11382 8201,11257 8078,11213 7641,11112 7746,11286 Z M 8283,10657 C 8201,10884 8476,10989 8581,10968 8687,10947 8859,10989 8763,10813 8668,10638 8349,10473 8283,10657 Z M 8155,11027 C 8186,10897 8122,10796 7938,10793 7756,10789 7468,10823 7586,10928 7703,11034 8124,11157 8155,11027 Z M 9278,4089 C 9296,4240 9416,4389 9509,4365 9602,4341 9258,3910 9278,4089 Z M 9848,4653 C 9770,4667 9865,4921 9987,4928 10109,4935 10001,4625 9848,4653 Z M 9755,4931 C 9696,4992 9744,5312 9818,5281 9893,5250 9938,4741 9755,4931 Z M 9684,4833 C 9769,4824 9760,4666 9672,4578 9583,4490 9331,4351 9411,4490 9408,4619 9598,4843 9684,4833 Z M 9291,4391 C 9274,4254 8872,3914 8934,4199 8974,4383 9309,4527 9291,4391 Z M 9596,5191 C 9639,5089 9674,5052 9558,4867 9441,4681 9303,4544 9278,4774 9264,4906 9552,5293 9596,5191 Z M 8345,5344 C 8366,5298 8353,5145 8283,5199 8184,5276 8032,5365 8113,5440 8193,5515 8324,5389 8345,5344 Z M 9339,5337 C 9240,5414 9089,5503 9169,5578 9249,5652 9380,5527 9402,5481 9423,5436 9409,5283 9339,5337 Z M 9009,5269 C 9181,5355 9258,5279 9288,5197 9317,5114 9165,4717 9090,4867 9005,5035 8836,5182 9009,5269 Z M 8610,5139 C 8779,5182 8959,5084 8904,4895 8848,4706 8767,4660 8689,4755 8605,4858 8440,5096 8610,5139 Z M 8390,4452 C 8563,4619 8932,4619 8902,4452 8872,4285 8863,4131 8543,4156 8382,4168 8216,4285 8390,4452 Z M 7735,5799 C 7727,5521 7643,4972 7669,5243 7696,5514 7495,6003 7383,5875 7271,5747 7144,4894 7616,4118 8089,3343 8181,4147 8181,4147 8181,4147 8237,3397 7946,3331 7535,3238 6721,6104 6893,6523 7082,6985 7742,6077 7735,5799 Z M 10895,10235 C 10969,10285 11049,10163 11052,10131 11055,10100 11049,10056 10991,10094 10918,10141 10820,10184 10895,10235 Z M 11313,10265 C 11315,10192 11320,10089 11240,10131 11104,10203 11045,10269 11146,10329 11247,10390 11311,10337 11313,10265 Z M 11478,10250 C 11556,10328 11628,10222 11664,10170 11699,10118 11761,9993 11606,10052 11526,10083 11400,10171 11478,10250 Z M 12082,10328 C 12156,10316 12156,10124 12082,10180 12008,10236 12008,10341 12082,10328 Z M 11944,10657 C 12008,10613 11932,10514 11855,10573 11779,10631 11880,10702 11944,10657 Z M 11897,10271 C 11748,10226 11670,10421 11758,10449 11847,10477 12033,10313 11897,10271 Z M 11406,10741 C 11356,10755 11276,10831 11387,10881 11499,10930 11511,10712 11406,10741 Z M 11288,10504 C 11263,10506 11301,10653 11354,10643 11408,10634 11479,10485 11288,10504 Z M 11148,10757 C 11321,10700 11214,10498 11117,10504 11081,10506 10975,10815 11148,10757 Z M 10954,10411 C 10877,10426 10666,10510 10736,10597 10806,10683 10922,10621 10954,10559 10987,10497 11017,10399 10954,10411 Z M 10688,10276 C 10638,10289 10492,10349 10548,10411 10604,10473 10711,10419 10740,10374 10769,10328 10758,10257 10688,10276 Z M 10716,9958 C 10664,9988 10484,10069 10571,10168 10658,10267 10814,10147 10827,10094 10839,10040 10790,9914 10716,9958 Z M 10645,9578 C 10518,9652 10435,9834 10513,9879 10592,9924 10810,9687 10757,9639 10703,9590 10718,9536 10645,9578 Z M 10216,10176 C 10365,10275 10505,10126 10435,10003 10365,9879 10353,9707 10246,9746 10121,9790 10068,10077 10216,10176 Z M 10307,10719 C 10361,10737 10509,10620 10513,10540 10517,10460 10460,10312 10352,10361 10241,10413 10253,10701 10307,10719 Z M 10715,10786 C 10709,10758 10725,10641 10598,10659 10509,10672 10412,10849 10517,10913 10623,10978 10722,10814 10715,10786 Z M 10378,11043 C 10363,10990 10345,10882 10246,10922 10158,10958 10035,11194 10196,11272 10357,11349 10394,11095 10378,11043 Z M 9979,11160 C 9979,11098 9961,10936 9815,10974 9698,11005 9664,11189 9766,11240 9868,11290 9979,11222 9979,11160 Z M 10187,7845 C 10186,7830 10187,7813 10181,7799 10173,7782 10155,7770 10107,7770 10019,7770 9996,7810 10011,7851 10020,7876 10043,7902 10073,7920 10153,7968 10190,7880 10187,7845 Z M 10774,11680 C 10771,11645 10780,11605 10694,11605 10552,11605 10579,11707 10660,11755 10740,11802 10777,11714 10774,11680 Z M 10735,11418 C 10732,11383 10742,11343 10655,11343 10514,11343 10540,11445 10621,11493 10701,11541 10738,11453 10735,11418 Z M 9386,8960 C 9245,8960 9272,9062 9352,9110 9433,9157 9470,9069 9467,9035 9463,9000 9473,8960 9386,8960 Z M 9262,10599 C 9342,10647 9379,10559 9376,10524 9373,10489 9383,10449 9296,10449 9154,10449 9181,10551 9262,10599 Z M 7026,8459 C 7131,8522 7307,8300 7055,8265 6947,8251 6921,8396 7026,8459 Z M 1539,9414 C 1644,9477 1820,9255 1568,9221 1460,9206 1433,9351 1539,9414 Z M 2449,11807 C 2554,11870 2730,11647 2478,11613 2371,11599 2344,11744 2449,11807 Z M 9065,10793 C 8957,10778 8931,10923 9036,10986 9141,11049 9317,10827 9065,10793 Z M 9676,10737 C 9670,10641 9661,10562 9528,10617 9417,10663 9367,10914 9491,10974 9614,11034 9684,10862 9676,10737 Z M 9990,10587 C 9891,10616 9841,10749 9895,10815 9948,10881 10134,10869 10150,10788 10167,10708 10134,10545 9990,10587 Z M 12100,8056 C 12034,8123 12015,8164 12066,8205 12117,8246 12186,7970 12100,8056 Z M 12002,8036 C 12018,8056 12130,7797 12093,7718 12055,7640 11984,7893 11969,7955 11949,8037 11985,8015 12002,8036 Z M 12021,7458 C 11979,7397 11863,7684 11833,7772 11800,7870 11882,7801 11907,7815 11932,7829 12064,7520 12021,7458 Z M 11886,7343 C 11862,7244 11716,7512 11717,7588 11721,7780 11911,7442 11886,7343 Z M 11952,7250 C 12039,7223 12095,7259 12051,7090 12008,6920 11609,6511 11623,6663 11633,6775 11866,7276 11952,7250 Z M 11359,6085 C 11273,6252 11463,6393 11590,6393 11717,6393 11441,5924 11359,6085 Z M 10289,5770 C 10449,5745 10567,5739 10499,5615 10431,5492 9933,5040 9992,5243 10053,5455 10128,5795 10289,5770 Z M 10814,6279 C 10734,6190 10648,6155 10688,6248 10704,6286 10746,6433 10814,6429 10882,6425 10895,6368 10814,6279 Z M 10542,6240 C 10660,6190 10567,5712 10289,5933 10067,6109 10425,6289 10542,6240 Z M 10765,5875 L 10765,5906 C 10808,6067 11031,6527 11136,6356 11241,6184 10802,5727 10765,5875 Z M 6683,8489 C 6553,8425 6147,8677 6002,8801 5821,8955 6503,8986 6683,8904 6862,8822 6812,8553 6683,8489 Z M 6800,8016 C 6751,7886 6011,8066 5885,8132 5779,8188 6485,8337 6627,8359 6769,8381 6850,8145 6800,8016 Z M 9119,6120 C 9330,6054 9759,5541 9722,5467 9684,5393 9139,5901 9009,6003 8935,6061 8909,6186 9119,6120 Z M 8324,6453 C 8414,6445 8810,5978 8802,5936 8794,5894 8187,6219 8122,6356 8093,6415 8233,6461 8324,6453 Z M 7515,7109 C 7544,7138 7944,6350 7919,6267 7894,6185 7449,6753 7422,6834 7403,6890 7486,7080 7515,7109 Z M 7544,7611 C 7623,7562 7680,7322 7660,7256 7639,7190 7121,7625 7103,7693 7074,7805 7466,7660 7544,7611 Z M 7148,7331 C 7123,7318 6464,7806 6435,7830 6384,7871 6802,7825 6858,7801 6914,7776 7173,7343 7148,7331 Z M 6910,7291 C 7040,7303 7287,6834 7275,6759 7262,6685 6780,7174 6675,7254 6570,7335 6780,7279 6910,7291 Z M 8903,3840 C 8928,3772 9188,3345 9039,2857 8773,2980 8953,3201 8322,3397 8322,3500 8229,3896 8377,3883 8526,3871 8878,3908 8903,3840 Z M 10226,8359 C 10319,8386 10365,8197 10357,8139 10348,8081 10295,7983 10245,8016 10134,8089 10132,8332 10226,8359 Z M 10225,8733 C 10233,8642 10204,8391 10095,8444 9898,8539 9768,8721 9906,8859 10043,8997 10216,8823 10225,8733 Z M 8938,8594 C 8852,8497 8526,8908 8691,9055 8856,9203 8963,9172 9037,9055 9111,8939 9144,8826 8938,8594 Z M 8551,9211 C 8383,9260 8125,9425 8222,9532 8320,9640 8666,9762 8736,9639 8806,9516 8740,9156 8551,9211 Z M 8819,10019 C 8806,9912 8688,9762 8586,9788 8407,9835 8164,10020 8349,10094 8534,10168 8833,10126 8819,10019 Z M 6093,10695 C 5756,10614 5649,10992 5747,11108 5845,11223 6431,11465 6555,11332 6678,11198 6571,10811 6093,10695 Z M 6546,9145 C 6286,9135 5779,9227 5977,9524 6175,9821 6538,10040 6736,9848 6934,9656 7165,9170 6546,9145 Z M 5623,9018 C 5862,8815 5746,8056 5359,8139 5173,8179 4740,8271 4757,8403 4773,8535 5384,9221 5623,9018 Z M 5788,7817 C 5944,7957 6266,7957 6291,7726 6316,7496 5994,6995 5788,7163 5610,7308 5631,7677 5788,7817 Z M 4258,5795 C 4233,5906 3998,6407 4258,6506 4518,6605 4680,6246 4664,5999 4648,5751 4734,5467 4530,5621 4457,5677 4283,5683 4258,5795 Z M 3008,5498 C 2953,5727 3188,5962 3448,6042 3707,6122 4010,6234 4035,6042 4060,5850 4005,4934 3643,5325 3173,5834 3064,5269 3008,5498 Z M 11495,6555 C 11453,6480 11283,6417 11264,6477 11198,6680 11561,7450 11585,7434 11610,7417 11536,6630 11495,6555 Z M 11111,6453 C 11008,6371 10913,6522 10901,6605 10888,6687 11101,7001 11169,7140 11211,7226 11264,7153 11264,7112 11264,7071 11214,6535 11111,6453 Z M 10798,7090 C 10971,7199 11121,7234 11041,7090 10958,6941 10876,6749 10781,6790 10686,6832 10625,6981 10798,7090 Z M 10736,6625 C 10724,6555 10744,6391 10612,6477 10517,6539 10336,6774 10456,6856 10575,6939 10748,6696 10736,6625 Z M 10394,7314 C 10526,7318 10579,7304 10575,7218 10571,7133 10293,6907 10289,6981 10283,7075 10262,7310 10394,7314 Z M 10192,6854 C 10282,6881 10369,6638 10414,6506 10460,6374 10348,6250 10241,6374 10159,6469 10101,6827 10192,6854 Z M 9087,6650 C 9074,6588 9000,6388 8959,6527 8950,6554 8835,6821 8959,6820 9082,6819 9099,6712 9087,6650 Z M 9119,6477 C 9115,6655 9594,6489 9655,6356 9716,6222 9689,6073 9486,6052 9284,6032 9123,6337 9119,6477 Z M 9916,7030 C 9959,7120 10036,7388 10095,7388 10154,7388 10295,7388 10289,7314 10282,7240 10130,7002 10056,6981 9981,6960 9872,6939 9916,7030 Z M 9891,6357 C 9804,6329 9681,6633 9672,6770 9666,6858 9965,6881 10010,6820 10056,6759 9977,6386 9891,6357 Z M 9206,8801 C 9262,8794 9386,8807 9392,8627 9398,8448 9369,8213 9288,8188 9206,8164 8967,8170 9009,8318 9049,8459 9150,8807 9206,8801 Z M 9655,7644 C 9849,7675 9973,7465 9948,7332 9924,7199 9733,6869 9655,7019 9610,7106 9460,7613 9655,7644 Z M 9915,7916 C 9905,7805 9113,7508 9119,7768 9125,7983 9541,8288 9655,8359 9769,8430 9925,8027 9915,7916 Z M 8093,7496 C 7969,7472 7470,7730 7332,7885 7183,8052 7449,8263 7598,8287 7746,8312 7981,7910 8093,7786 8204,7663 8216,7520 8093,7496 Z M 8670,6881 C 8864,6869 8822,6263 8798,6230 8680,6071 8351,6656 8278,6770 8208,6880 8476,6894 8670,6881 Z M 8068,6481 C 8014,6423 7727,7039 7713,7090 7685,7195 8027,7170 8134,7116 8241,7063 8122,6539 8068,6481 Z M 10616,7792 C 10616,7792 10845,8380 10895,8392 10944,8405 11198,8244 11099,7792 10771,7774 10616,7792 10616,7792 Z M 11594,8894 C 11506,8918 11395,8902 11266,8819 10919,8597 10493,8126 10289,7619 10443,7582 10988,7632 11488,7588 11699,7860 11253,7778 11291,7955 11325,8121 11765,8453 11792,8641 12183,9058 12207,9932 12207,10141 12072,9354 11812,9046 11594,8894 Z M 4815,7010 C 5549,5763 5763,7091 6530,6894 6300,6541 6429,4893 7638,3424 L 7638,3424 C 7373,3696 5536,4432 4938,4791 4938,4939 4908,5870 4900,5936 4834,6480 4562,7439 4815,7010 Z M 7660,3397 C 7652,3406 7645,3415 7638,3424 7647,3414 7654,3405 7660,3397 Z M 10110,12180 C 10254,12139 10399,12103 10545,12073 10628,12056 10712,12041 10797,12030 10728,11961 10660,11892 10592,11825 10440,11854 10289,11885 10138,11917 9944,11958 9750,12001 9556,12044 9440,12070 9324,12096 9208,12123 9271,12219 9337,12317 9406,12413 9498,12378 9590,12345 9683,12313 9825,12265 9967,12220 10110,12180 Z M 10133,12253 C 9993,12301 9853,12349 9715,12401 9631,12431 9548,12463 9465,12494 9565,12629 9668,12755 9771,12863 9794,12847 9818,12831 9842,12815 9966,12736 10090,12657 10219,12585 10251,12568 10283,12549 10315,12532 L 10414,12481 10512,12431 C 10545,12414 10579,12400 10612,12385 10737,12327 10865,12275 10995,12230 10936,12172 10877,12111 10816,12050 10729,12071 10643,12095 10557,12120 10414,12161 10273,12207 10133,12253 Z M 9541,11968 C 9737,11932 9933,11900 10129,11870 10279,11848 10429,11828 10580,11813 10510,11744 10441,11679 10374,11620 10177,11647 9980,11666 9782,11686 L 9087,11751 C 9052,11755 9017,11758 8982,11761 8991,11778 9001,11796 9012,11814 9057,11886 9105,11964 9156,12043 9284,12017 9412,11992 9541,11968 Z M 9779,11638 C 9974,11629 10169,11622 10364,11611 10169,11439 9994,11320 9873,11332 9521,11369 8774,11233 8946,11683 8991,11680 9036,11677 9081,11675 9314,11660 9546,11649 9779,11638 Z M 10481,11486 C 10492,11450 10473,11413 10438,11401 10402,11390 10365,11410 10353,11445 10342,11480 10362,11518 10397,11529 10432,11540 10470,11521 10481,11486 Z M 11069,12046 C 11057,12081 11077,12119 11112,12130 11148,12141 11185,12121 11196,12086 11208,12051 11188,12013 11153,12002 11118,11991 11080,12010 11069,12046 Z M 10920,11888 C 10931,11852 10912,11815 10877,11804 10841,11792 10804,11812 10793,11847 10781,11882 10801,11920 10836,11931 10871,11943 10909,11923 10920,11888 Z M 11349,12374 C 11338,12409 11357,12447 11393,12458 11428,12469 11466,12450 11477,12415 11488,12379 11468,12342 11433,12331 11398,12319 11360,12339 11349,12374 Z M 11418,12157 C 11407,12192 11426,12229 11462,12241 11497,12252 11535,12232 11546,12197 11557,12162 11537,12124 11502,12113 11467,12102 11429,12121 11418,12157 Z M 11852,12271 C 11863,12236 11844,12198 11809,12187 11773,12176 11736,12195 11725,12230 11713,12266 11733,12303 11768,12315 11803,12326 11841,12306 11852,12271 Z M 11993,12520 C 11981,12555 12001,12593 12036,12604 12072,12615 12109,12596 12120,12561 12132,12525 12112,12488 12077,12476 12041,12465 12004,12485 11993,12520 Z M 12042,12233 C 12006,12222 11969,12241 11957,12277 11946,12312 11966,12350 12001,12361 12036,12372 12074,12353 12085,12317 12096,12282 12077,12244 12042,12233 Z M 12164,12297 C 12153,12333 12172,12370 12207,12382 12243,12393 12280,12373 12291,12338 12303,12303 12283,12265 12248,12254 12213,12243 12175,12262 12164,12297 Z M 12478,12338 C 12489,12303 12470,12265 12435,12254 12399,12243 12362,12262 12351,12297 12339,12333 12359,12370 12394,12382 12429,12393 12467,12373 12478,12338 Z M 12550,11968 C 12561,11932 12542,11895 12507,11883 12471,11872 12434,11892 12423,11927 12411,11962 12431,12000 12466,12011 12501,12022 12539,12003 12550,11968 Z M 12228,11518 C 12228,11555 12258,11585 12295,11585 12332,11585 12362,11555 12362,11518 12362,11481 12332,11451 12295,11451 12258,11451 12228,11481 12228,11518 Z M 11608,12492 C 11600,12537 11649,12583 11717,12595 11786,12607 11848,12580 11856,12536 11863,12491 11814,12445 11746,12432 11678,12420 11616,12447 11608,12492 Z M 12083,11876 C 12075,11921 12124,11967 12193,11979 12261,11991 12323,11965 12331,11920 12339,11875 12290,11829 12221,11817 12153,11805 12091,11831 12083,11876 Z M 11870,11733 C 11801,11720 11740,11747 11732,11792 11724,11837 11773,11883 11841,11895 11909,11907 11971,11881 11979,11836 11987,11791 11938,11745 11870,11733 Z M 11328,11697 C 11315,11741 11357,11793 11423,11814 11490,11835 11554,11817 11568,11774 11582,11730 11539,11678 11473,11657 11407,11636 11342,11654 11328,11697 Z M 11115,11472 C 11055,11438 10988,11441 10965,11481 10942,11520 10973,11580 11033,11615 11093,11650 11160,11646 11183,11607 11206,11567 11175,11507 11115,11472 Z M 10736,11108 C 10684,11108 10643,11149 10643,11201 10643,11252 10684,11293 10736,11293 10787,11293 10828,11252 10828,11201 10828,11149 10787,11108 10736,11108 Z M 11117,11015 C 11117,10964 11076,10922 11025,10922 10973,10922 10932,10964 10932,11015 10932,11066 10973,11108 11025,11108 11076,11108 11117,11066 11117,11015 Z M 11313,11108 C 11262,11108 11220,11149 11220,11201 11220,11252 11262,11293 11313,11293 11364,11293 11406,11252 11406,11201 11406,11149 11364,11108 11313,11108 Z M 11606,11240 C 11555,11240 11513,11281 11513,11332 11513,11384 11555,11425 11606,11425 11657,11425 11699,11384 11699,11332 11699,11281 11657,11240 11606,11240 Z M 11664,10504 C 11664,10453 11622,10411 11571,10411 11520,10411 11478,10453 11478,10504 11478,10555 11520,10597 11571,10597 11622,10597 11664,10555 11664,10504 Z M 11944,10881 C 11944,10830 11902,10788 11851,10788 11800,10788 11758,10830 11758,10881 11758,10932 11800,10974 11851,10974 11902,10974 11944,10932 11944,10881 Z M 12082,11425 C 12082,11374 12041,11332 11989,11332 11938,11332 11897,11374 11897,11425 11897,11476 11938,11518 11989,11518 12041,11518 12082,11476 12082,11425 Z M 9177,9623 C 9270,9667 9452,9621 9446,9461 9440,9300 9180,9203 9122,9339 9060,9407 9084,9580 9177,9623 Z M 10052,9670 C 10046,9509 9786,9412 9728,9548 9666,9616 9691,9789 9783,9833 9876,9876 10059,9831 10052,9670 Z M 9621,10117 C 9559,10185 9583,10358 9676,10402 9769,10445 9951,10400 9945,10239 9939,10078 9679,9981 9621,10117 Z M 9150,9976 C 9089,10044 9113,10217 9206,10260 9299,10304 9481,10259 9475,10098 9469,9937 9209,9840 9150,9976 Z M 8773,10242 C 8708,10263 8588,10415 8662,10477 8736,10539 8922,10638 9033,10557 9144,10477 8946,10186 8773,10242 Z M 8761,8219 C 8866,8108 8816,7700 8761,7675 8705,7650 8498,7709 8365,7867 8266,7984 8656,8331 8761,8219 Z M 8464,7201 C 8439,7438 8940,7576 8996,7446 9051,7316 8915,6994 8841,6948 8767,6901 8476,7086 8464,7201 Z M 9150,7149 C 9243,7242 9404,7205 9447,7081 9491,6957 9360,6619 9287,6710 9194,6826 9058,7056 9150,7149 Z M 10078,6160 C 10140,6061 10016,5733 9992,5683 9967,5634 9704,5756 9738,5955 9775,6172 10016,6258 10078,6160 Z M 8148,8280 C 8091,8238 7882,8221 7924,8345 7958,8447 8229,8708 8163,8980 8097,9252 8542,9054 8526,8700 8509,8345 8206,8321 8148,8280 Z M 7965,9018 C 8105,8834 7874,8518 7643,8452 7412,8386 7306,8720 6959,8716 6730,8714 7107,9030 7264,9203 7421,9376 7825,9203 7965,9018 Z M 6980,11885 C 6953,11889 6926,11893 6899,11897 6700,11929 6502,11965 6305,12007 6077,12055 5850,12114 5628,12187 5572,12206 5518,12227 5463,12247 L 5381,12280 C 5358,12290 5335,12300 5312,12311 5312,12289 5310,12267 5306,12246 5299,12214 5290,12183 5277,12153 5251,12093 5217,12037 5181,11984 5107,11877 5022,11780 4936,11685 4870,11613 4803,11544 4737,11475 4731,11469 4725,11463 4719,11458 4720,11456 4721,11455 4722,11454 4714,11448 4707,11442 4699,11437 4689,11427 4680,11417 4670,11407 4585,11319 4499,11231 4425,11141 4165,10719 4331,10268 4333,10262 L 4349,10220 4357,10265 C 4577,11570 5805,11730 6888,11871 6919,11875 6950,11880 6980,11885 Z"/>
        </g>
       </g>
      </g>
     </g>
    </g>
   </g>
  </g>
 </g>
</svg>